<?xml version="1.0" standalone="no"?>
<!DOCTYPE svg PUBLIC "-//W3C//DTD SVG 20010904//EN"
 "http://www.w3.org/TR/2001/REC-SVG-20010904/DTD/svg10.dtd">
<svg version="1.0" xmlns="http://www.w3.org/2000/svg"
 width="789.000000pt" height="890.000000pt" viewBox="0 0 789.000000 890.000000"
 preserveAspectRatio="xMidYMid meet">

<g transform="translate(0.000000,890.000000) scale(0.100000,-0.100000)"
fill="#000000" stroke="none">
<path d="M0 8834 c0 -62 13 -94 38 -94 5 0 15 -19 22 -41 8 -23 16 -37 18 -30
5 14 39 15 47 1 3 -5 0 -10 -8 -10 -11 0 -13 -10 -10 -43 6 -48 -6 -61 -42
-46 -17 6 -17 8 -2 8 11 1 17 9 17 26 0 22 -3 24 -19 16 -10 -6 -21 -17 -25
-26 -3 -8 -12 -15 -21 -15 -13 0 -15 -83 -15 -745 l0 -745 20 20 c30 30 108
27 179 -6 l55 -27 243 6 c134 4 257 4 274 0 27 -5 30 -9 26 -33 -5 -22 0 -31
23 -49 16 -11 34 -21 40 -21 14 0 40 -25 40 -39 0 -14 34 -14 121 0 46 8 69
16 69 25 0 8 10 14 23 14 13 0 32 9 42 20 10 11 24 20 32 20 7 0 13 7 13 17 0
22 48 83 65 83 8 0 18 7 22 15 14 25 171 41 249 26 35 -7 85 -14 112 -14 28
-1 48 -5 46 -9 -7 -11 15 -20 29 -11 6 4 35 8 64 8 43 1 52 -2 57 -18 3 -14
11 -18 26 -14 22 6 83 -28 88 -48 2 -9 11 -13 84 -29 42 -10 53 -39 32 -86
-15 -33 -22 -40 -43 -38 -15 2 -38 15 -52 31 -14 15 -31 27 -38 27 -6 0 -23 8
-37 17 -23 15 -33 15 -87 4 -34 -7 -100 -17 -147 -22 -150 -16 -217 -26 -231
-35 -8 -5 -59 -9 -114 -9 -55 0 -106 -4 -113 -8 -8 -6 -12 -39 -12 -106 l0
-98 -52 -11 c-29 -7 -107 -12 -173 -13 -189 -1 -188 -1 -290 -97 -36 -34 -75
-43 -140 -32 -33 5 -61 14 -63 20 -2 5 -14 10 -27 10 -16 0 -25 7 -29 25 -4
14 -12 25 -20 25 -7 0 -21 9 -30 19 -11 12 -25 17 -38 13 -11 -3 -24 1 -28 8
-12 20 -39 -5 -33 -30 3 -13 0 -20 -8 -21 -91 -4 -142 -17 -136 -33 6 -16 -32
-26 -94 -26 l-39 0 0 -233 0 -233 85 2 85 1 0 -28 c0 -23 -8 -31 -45 -50 -25
-12 -45 -28 -45 -35 0 -14 -54 -29 -70 -19 -7 4 -10 -128 -10 -409 l0 -416
213 0 c144 0 217 4 224 11 6 6 25 13 42 15 40 5 130 46 114 51 -8 3 -13 22
-13 45 0 32 -3 39 -16 34 -8 -3 -13 -2 -10 3 7 11 -53 21 -127 21 -40 0 -59
-4 -63 -14 -4 -10 -31 -16 -84 -21 -113 -10 -156 12 -134 69 9 23 69 30 129
16 63 -15 115 1 115 35 0 15 2 17 9 6 7 -11 17 -6 45 23 20 20 42 36 49 35 9
0 9 -2 -1 -6 -16 -6 -6 -23 15 -23 9 0 13 6 10 14 -3 7 0 19 6 25 8 8 5 16 -8
31 -13 15 -16 23 -8 28 6 4 11 16 10 27 -2 18 3 20 58 17 32 -1 62 -6 65 -11
3 -4 18 -11 33 -15 15 -4 25 -11 22 -16 -4 -6 1 -13 9 -16 9 -3 16 -13 16 -20
0 -11 4 -12 19 -4 11 5 33 10 49 10 31 0 42 -14 42 -55 0 -13 9 -30 21 -38 15
-11 17 -17 8 -22 -7 -5 6 -15 36 -26 27 -10 60 -30 75 -44 l27 -26 17 26 c9
14 21 23 27 19 6 -3 23 0 40 6 24 10 28 17 23 36 -10 38 12 54 72 54 49 0 54
-2 60 -25 3 -13 4 -47 2 -75 -3 -51 -3 -51 34 -62 46 -14 56 -48 21 -77 -13
-12 -27 -21 -32 -21 -4 0 -19 -8 -32 -19 -22 -16 -47 -23 -129 -35 -14 -2 -51
-4 -82 -5 -51 -1 -61 -5 -85 -31 -14 -16 -32 -30 -40 -30 -7 0 -13 -7 -13 -16
0 -11 -6 -14 -20 -10 -11 3 -29 9 -40 12 -26 7 -26 40 0 54 11 6 20 20 20 32
0 19 -4 20 -57 13 -32 -4 -61 -12 -64 -17 -4 -7 -22 -8 -43 -5 -20 3 -36 2
-36 -3 0 -11 26 -20 56 -20 14 0 24 -6 24 -14 0 -12 -7 -12 -35 -5 -23 7 -41
6 -55 -1 -36 -19 -212 -22 -261 -4 -31 11 -75 16 -154 15 -140 -2 -160 -5
-180 -25 -9 -9 -21 -16 -26 -16 -5 0 -9 -134 -9 -331 l0 -330 23 6 c56 17 87
30 87 37 0 14 78 48 125 53 26 3 68 10 94 16 25 5 56 12 69 14 13 2 29 8 36
14 7 6 38 13 69 17 32 4 60 11 63 15 8 13 74 11 74 -2 0 -16 51 -62 70 -64 8
-1 25 -5 38 -9 14 -5 29 -3 37 4 8 7 15 9 15 5 0 -3 12 3 26 14 15 12 33 21
40 21 8 0 14 7 14 15 0 8 6 15 13 16 6 0 39 3 71 5 90 7 132 -12 137 -61 0 -5
5 -16 11 -22 7 -9 7 -17 0 -25 -6 -7 -13 -30 -17 -50 -4 -20 -16 -44 -26 -54
-10 -9 -19 -24 -19 -32 0 -9 -3 -12 -6 -9 -4 4 -16 -11 -28 -33 -12 -21 -68
-89 -126 -150 -94 -99 -137 -154 -156 -200 -3 -8 -12 -29 -20 -47 -8 -17 -14
-35 -14 -41 0 -12 -34 -22 -78 -22 -26 0 -35 5 -39 20 -6 22 -19 26 -25 8 -2
-6 -4 6 -5 28 0 21 -3 55 -7 74 -4 19 -8 49 -10 65 -2 17 -4 33 -5 37 0 3 -28
5 -61 5 -51 -1 -62 1 -76 21 -13 18 -22 21 -57 18 -83 -9 -110 -23 -145 -76
-17 -28 -37 -50 -42 -50 -6 0 -10 -7 -10 -15 0 -19 -36 -20 -43 -1 -6 15 -35
13 -74 -7 -20 -9 -23 -18 -23 -74 0 -59 11 -82 23 -49 3 7 26 21 52 29 41 15
51 15 88 2 23 -8 54 -15 68 -15 38 0 99 -28 107 -49 13 -33 59 -79 83 -84 23
-4 23 -4 -2 -6 -21 -1 -28 -7 -32 -31 -4 -17 -13 -30 -21 -30 -9 0 -20 -16
-26 -40 -6 -21 -18 -44 -28 -49 -10 -6 -12 -11 -4 -11 6 0 12 -7 12 -15 0 -8
5 -15 12 -15 6 0 8 -3 5 -6 -4 -4 -13 -1 -22 6 -21 17 -19 3 5 -30 22 -30 26
-22 -49 -90 -34 -30 -74 -39 -86 -20 -3 5 -14 10 -24 10 -18 0 -34 13 -76 65
-28 34 -30 44 -13 80 17 37 -6 101 -44 119 l-28 14 0 -287 0 -287 40 -30 c22
-16 40 -34 40 -40 0 -5 11 -34 25 -62 28 -57 28 -56 -28 -113 -23 -23 -33 -27
-47 -19 -10 6 -21 10 -24 10 -3 0 -6 -637 -6 -1415 l0 -1415 3285 0 3285 0 -6
40 c-6 38 -5 40 20 40 22 0 27 -5 32 -40 5 -30 11 -40 25 -40 14 0 19 7 19 25
0 14 -4 25 -10 25 -5 0 -10 9 -10 19 0 11 4 23 10 26 6 3 10 15 10 25 0 21 28
40 59 40 14 0 21 -6 21 -20 0 -11 -7 -20 -15 -20 -8 0 -15 -4 -15 -10 0 -5 7
-10 15 -10 9 0 15 -9 15 -25 0 -16 -6 -25 -15 -25 -16 0 -19 -9 -9 -34 4 -9
18 -16 34 -16 l27 0 -5 75 -5 75 27 0 c24 0 26 -4 26 -39 0 -51 8 -71 26 -64
10 3 14 22 14 59 0 51 1 54 25 54 23 0 25 -4 25 -44 0 -24 3 -57 6 -74 5 -24
2 -31 -12 -35 -11 -3 72 -5 184 -6 184 -1 205 1 223 17 19 19 19 19 -11 85
-16 37 -30 69 -30 72 0 4 12 5 27 3 21 -2 29 -10 37 -35 12 -44 22 -41 30 7 5
34 10 40 31 40 14 0 25 -5 25 -10 0 -12 -35 -137 -45 -162 -7 -17 9 -18 254
-18 l261 0 -2 1577 -3 1578 -33 15 c-79 38 -118 97 -74 115 16 7 15 8 -3 16
-16 8 -14 8 11 5 16 -3 34 -6 40 -7 5 -1 21 -1 37 0 l27 1 0 225 0 225 -29 0
c-17 0 -33 5 -36 10 -4 6 -10 8 -15 5 -12 -7 -60 42 -60 62 0 9 -10 37 -21 62
-81 174 -108 220 -166 284 -35 38 -63 73 -63 77 0 5 -8 17 -19 27 -10 10 -24
36 -31 58 -14 45 -77 115 -96 108 -26 -10 -54 35 -55 90 -1 28 -2 59 -3 67 -1
8 2 20 7 26 4 7 1 14 -7 17 -8 3 -16 2 -18 -3 -2 -4 -22 1 -45 12 -38 18 -93
82 -93 109 0 6 -8 23 -19 37 -10 15 -21 37 -25 49 -4 13 -27 33 -56 47 -51 26
-72 28 -92 8 -7 -7 -18 -12 -25 -12 -28 0 -30 -56 -15 -350 9 -187 4 -220 -32
-220 -31 0 -171 72 -211 108 -19 18 -38 32 -42 32 -21 0 -133 131 -133 156 0
7 -5 14 -11 16 -6 2 -14 26 -16 54 -4 41 0 61 27 117 34 72 37 95 26 202 -10
106 -9 201 4 224 6 11 10 38 10 58 -1 21 1 60 4 86 4 37 -1 61 -19 100 -16 35
-25 78 -28 132 -5 74 -24 136 -48 150 -5 4 -7 9 -5 13 2 4 -4 23 -15 42 -45
86 -56 119 -61 181 -4 43 -12 76 -24 92 -17 24 -106 77 -129 77 -20 1 -66 51
-90 98 -35 70 -49 79 -135 86 -127 9 -153 16 -187 49 -30 28 -33 37 -33 88 0
52 3 60 28 77 37 26 65 32 167 33 94 1 167 23 178 53 4 9 2 16 -4 16 -5 0 -1
10 10 21 15 16 18 26 11 40 -7 11 -7 20 0 24 16 10 11 39 -10 58 -13 11 -37
17 -68 17 -38 0 -54 -6 -81 -30 -39 -34 -38 -34 -110 -16 -36 10 -61 12 -78 5
-13 -5 -34 -7 -46 -4 -25 6 -41 -3 -50 -25 -3 -10 -6 -6 -6 9 -1 23 -2 23 -20
7 -15 -13 -20 -14 -24 -4 -4 9 -6 8 -6 -4 -1 -9 5 -18 11 -20 9 -3 7 -10 -6
-23 -15 -16 -22 -17 -50 -7 -18 7 -44 12 -59 12 -15 0 -27 5 -27 10 0 6 -7 10
-15 10 -11 0 -15 11 -15 40 l0 40 -51 0 c-27 0 -48 4 -45 9 3 5 -1 14 -9 21
-14 11 -14 15 0 36 14 22 14 23 -2 17 -10 -4 -21 -11 -25 -16 -4 -6 -12 -4
-21 5 -12 12 -13 18 -4 27 9 9 8 14 -3 21 -26 16 0 24 35 11 32 -11 38 -10 65
11 16 13 29 29 29 36 1 6 7 12 14 12 8 0 24 11 37 25 12 13 27 22 31 19 5 -3
9 -1 9 5 0 6 11 13 25 17 14 3 25 10 25 14 0 5 8 6 18 4 19 -5 52 43 52 76 0
10 7 20 15 24 8 3 15 13 15 23 0 10 14 38 30 62 17 24 30 37 30 28 0 -10 6
-13 20 -10 11 3 46 -2 78 -11 79 -22 192 -25 287 -9 86 15 197 10 213 -10 5
-7 14 -25 19 -42 7 -22 17 -31 36 -33 15 -2 27 -8 27 -13 0 -5 9 -9 20 -9 11
0 20 -4 20 -10 0 -5 11 -10 25 -10 15 0 25 -6 25 -14 0 -20 20 -31 29 -17 5 8
19 3 44 -16 71 -54 124 -82 168 -89 56 -9 67 -18 61 -50 -3 -18 -15 -31 -33
-38 -22 -8 -28 -15 -23 -30 5 -14 3 -18 -9 -13 -19 7 -82 -96 -73 -120 3 -8
-4 -33 -16 -56 -11 -23 -20 -43 -19 -44 9 -17 -6 -50 -39 -84 -22 -23 -40 -45
-40 -49 0 -4 -7 -13 -15 -20 -8 -7 -15 -8 -15 -2 0 13 -45 29 -101 36 -46 5
-47 4 -51 -24 -4 -26 -1 -29 29 -35 18 -3 38 -3 43 0 6 3 10 -1 10 -9 0 -9 5
-16 10 -16 6 0 16 -11 22 -25 6 -13 19 -27 28 -30 11 -4 20 -20 24 -46 5 -29
13 -43 31 -51 14 -6 27 -19 30 -28 3 -10 23 -30 45 -44 22 -14 40 -33 40 -41
0 -8 6 -18 14 -22 8 -4 17 -27 20 -51 8 -67 27 -112 73 -175 24 -33 43 -65 43
-73 0 -8 7 -14 15 -14 8 0 15 -7 15 -15 0 -9 12 -18 30 -21 16 -4 30 -10 30
-14 0 -4 20 -6 45 -4 28 3 45 0 45 -7 0 -8 38 -9 130 -4 94 6 130 4 130 -4 0
-6 8 -11 18 -11 10 0 23 -5 30 -12 9 -9 12 -9 12 0 0 16 27 15 33 0 3 -10 9
-10 28 -1 13 6 31 13 39 15 11 4 9 9 -9 24 -13 10 -32 27 -43 37 -10 9 -25 17
-33 17 -8 0 -15 5 -15 10 0 6 -11 10 -24 10 -15 0 -26 7 -29 20 -3 14 -14 20
-31 20 -14 0 -26 5 -26 10 0 6 -11 10 -25 10 -14 0 -25 5 -25 10 0 6 -8 10
-19 10 -10 0 -24 7 -31 15 -7 8 -18 15 -26 15 -23 0 -83 84 -94 133 -9 40 -8
51 5 64 17 16 41 15 160 -7 133 -25 189 -31 214 -23 39 13 121 9 130 -6 5 -7
19 -18 32 -25 23 -11 24 -16 27 -145 3 -114 1 -136 -12 -143 -20 -11 -21 -34
-1 -42 8 -3 15 -12 15 -21 0 -8 5 -15 10 -15 6 0 10 5 10 10 0 17 18 11 44
-15 14 -14 32 -25 41 -25 8 0 21 11 27 25 6 14 19 25 29 25 10 0 19 -10 23
-25 4 -14 11 -25 16 -25 5 0 12 11 16 25 7 28 24 34 24 9 0 -14 3 -14 15 -4
21 17 15 21 -47 30 l-53 8 48 1 c27 0 57 -4 68 -9 19 -11 19 -3 19 400 l0 411
-28 -21 c-15 -11 -47 -23 -72 -26 -78 -9 -84 -10 -112 -22 -25 -10 -32 -21
-30 -43 1 -3 -17 -26 -39 -50 -21 -24 -39 -47 -39 -51 0 -4 -15 -6 -32 -4 -29
3 -33 7 -36 34 -2 19 -12 36 -28 47 -14 9 -23 22 -21 30 8 20 -30 55 -61 55
-30 1 -66 23 -54 34 4 5 0 7 -8 5 -8 -2 -26 1 -39 5 -30 10 -153 -2 -146 -15
4 -5 1 -9 -5 -9 -6 0 -24 -16 -41 -35 -17 -19 -38 -35 -46 -35 -8 0 -12 4 -9
9 8 12 -31 44 -44 36 -6 -4 -10 -15 -8 -24 3 -19 -18 -51 -33 -51 -14 0 -10
20 7 37 10 10 14 27 12 45 -3 21 0 28 11 28 13 0 15 10 12 56 -4 74 12 104 54
104 18 0 38 7 45 15 7 8 17 12 23 8 5 -3 16 2 24 12 12 17 14 17 26 3 12 -17
67 -14 67 3 0 5 9 9 20 9 11 0 20 4 20 9 0 5 10 11 23 15 12 3 35 17 51 31 16
14 39 25 50 26 20 1 120 1 142 0 6 -1 24 -13 39 -27 15 -14 36 -26 46 -27 10
-1 16 -3 14 -5 -2 -3 5 -18 16 -33 14 -20 29 -29 48 -29 15 0 32 -5 37 -10 6
-6 40 -13 77 -17 l67 -6 0 167 0 166 -27 1 c-16 1 -58 1 -95 1 -38 0 -66 4
-63 8 6 10 -15 8 -33 -4 -7 -4 -26 -5 -42 -1 -19 4 -30 3 -30 -4 0 -6 -7 -11
-15 -11 -8 0 -15 6 -15 13 0 7 -15 18 -34 25 -33 12 -33 13 -32 70 1 56 1 57
44 78 23 12 50 28 60 36 9 8 25 18 35 21 15 6 17 13 11 44 -4 21 -10 39 -14
41 -4 2 -6 11 -3 21 5 19 -13 31 -55 36 -13 2 -34 10 -47 19 -13 9 -33 16 -44
16 -56 0 -125 139 -88 176 4 4 7 18 7 31 0 14 6 23 15 23 9 0 12 6 8 15 -3 9
-2 15 3 13 5 -1 18 5 29 14 11 10 29 24 40 32 18 13 17 15 -23 54 -24 23 -43
44 -42 47 0 3 0 8 0 13 0 4 -18 16 -40 26 -22 11 -40 26 -41 35 0 10 -2 12 -6
4 -5 -15 -53 -18 -53 -4 0 5 -16 15 -35 21 -19 6 -35 16 -35 21 0 5 -9 9 -21
9 -15 0 -19 5 -15 15 4 11 -3 17 -24 22 -17 3 -33 10 -36 14 -3 5 -25 9 -50 9
-41 0 -45 2 -50 29 -7 33 -26 42 -64 29 -16 -6 -26 -6 -28 1 -2 6 -17 11 -33
11 -19 0 -29 5 -29 15 0 17 -14 19 -40 5 -21 -11 -36 -73 -45 -195 -9 -106
-18 -118 -87 -112 -50 4 -105 12 -138 20 -8 2 -30 11 -48 20 -18 10 -36 15
-41 12 -5 -2 -28 2 -51 10 -23 8 -56 15 -72 15 -21 0 -31 6 -35 19 -6 25 -87
45 -117 29 -16 -9 -17 -12 -4 -19 12 -7 14 -18 8 -50 -4 -22 -6 -48 -3 -58 2
-9 -6 -26 -18 -36 -12 -11 -19 -15 -16 -8 10 16 -84 48 -94 31 -6 -9 -11 -9
-23 1 -8 7 -24 10 -36 6 -16 -5 -20 -2 -20 14 0 12 5 21 10 21 6 0 10 -4 10
-10 0 -14 32 -12 52 3 9 7 18 24 20 37 2 19 9 24 24 23 15 -2 24 5 28 20 7 27
-10 48 -20 24 -9 -25 -24 -21 -24 6 0 30 10 40 25 27 9 -8 14 -5 18 10 3 11 1
20 -4 20 -5 0 -9 9 -9 19 0 24 -36 51 -67 51 -15 0 -21 5 -17 14 6 15 -29 32
-55 27 -8 -1 -12 3 -8 11 3 9 -6 19 -24 27 -16 7 -29 19 -29 26 0 7 -9 15 -20
18 -12 3 -20 14 -20 26 0 12 -6 21 -14 21 -8 0 -16 7 -20 15 -3 8 -12 15 -19
15 -8 0 -29 17 -46 37 -22 25 -40 37 -59 38 -22 0 -27 5 -27 25 0 20 6 26 28
28 27 3 27 4 27 77 0 41 4 77 10 80 6 3 10 11 10 16 0 6 -4 7 -10 4 -5 -3 -10
0 -10 7 0 23 -62 75 -105 88 -22 7 -42 16 -45 21 -3 4 -22 -7 -43 -26 -30 -27
-37 -40 -37 -69 0 -30 -5 -40 -32 -56 -43 -26 -73 -25 -99 1 -16 16 -35 22
-73 23 -50 1 -50 1 -53 -31 -2 -24 1 -31 11 -27 7 3 16 -2 19 -10 4 -9 13 -16
22 -16 8 0 15 -6 15 -14 0 -8 11 -17 24 -20 14 -3 27 -15 31 -26 3 -11 27 -33
52 -50 43 -29 47 -30 64 -14 17 15 18 13 12 -77 -3 -52 -10 -99 -15 -106 -13
-16 -1 -34 20 -31 10 2 17 -4 17 -12 0 -8 -6 -14 -12 -13 -12 3 -18 -17 -14
-40 1 -5 -3 -6 -9 -2 -6 4 -27 -6 -47 -21 -32 -24 -36 -25 -45 -10 -12 21 -93
60 -108 51 -13 -8 -13 -84 1 -124 6 -17 20 -36 30 -42 30 -16 49 -53 70 -136
28 -109 25 -224 -7 -278 -13 -23 -39 -55 -58 -72 l-35 -30 -198 4 c-158 4
-205 8 -233 21 -19 9 -46 18 -60 19 -14 1 -47 6 -73 12 -26 6 -73 13 -103 16
-31 3 -60 7 -65 11 -5 3 -18 2 -29 -1 -28 -9 -25 -44 5 -85 14 -19 25 -39 25
-45 0 -6 18 -28 39 -49 25 -24 42 -51 46 -74 3 -19 13 -42 21 -50 8 -8 13 -20
10 -27 -2 -7 2 -21 9 -32 11 -14 15 -15 15 -3 2 28 30 -75 30 -110 0 -23 3
-30 9 -22 6 10 10 8 14 -10 4 -12 3 -24 -2 -26 -5 -2 -7 -21 -4 -42 4 -26 2
-40 -6 -40 -6 0 -11 -15 -11 -32 0 -33 -28 -136 -29 -108 -1 21 -25 -16 -40
-62 -12 -37 -41 -53 -41 -23 0 18 4 17 -83 5 -72 -11 -71 -11 -125 40 -18 16
-36 23 -55 21 -15 -1 -51 3 -79 11 -41 10 -52 10 -56 0 -2 -7 -23 -12 -54 -12
-42 0 -49 -3 -44 -16 3 -8 0 -22 -7 -29 -29 -33 -37 -45 -37 -54 0 -12 -23
-20 -112 -37 -55 -10 -83 -12 -97 -4 -11 5 -70 11 -131 13 -96 3 -114 6 -122
21 -8 14 -12 15 -18 6 -6 -9 -13 -4 -24 16 -8 16 -15 23 -16 16 0 -7 -5 -10
-10 -7 -6 4 -7 11 -4 17 4 7 2 8 -4 4 -15 -9 -131 109 -167 169 -14 25 -37 51
-50 57 -26 12 -50 78 -60 170 -8 73 -28 113 -71 141 -18 12 -35 31 -38 41 -4
14 -8 17 -18 9 -23 -18 -46 -11 -44 12 0 14 6 21 14 18 7 -3 12 3 12 15 0 11
14 32 31 46 25 21 76 124 66 131 -15 12 -50 25 -67 25 -11 0 -23 6 -26 14 -3
7 -23 17 -46 20 -35 6 -38 9 -27 22 7 9 21 13 34 10 18 -5 26 2 44 37 44 87
42 225 -4 271 -31 32 -97 56 -149 56 -37 0 -53 -7 -96 -41 -59 -46 -74 -77
-67 -136 6 -54 64 -152 97 -164 14 -6 43 -18 65 -29 36 -17 37 -19 15 -21 -14
-1 -31 -1 -37 0 -7 1 -13 -3 -13 -9 0 -5 -9 -10 -19 -10 -11 0 -23 -4 -26 -10
-9 -15 -120 -12 -158 3 -18 8 -37 12 -44 10 -40 -14 -105 83 -117 177 -4 30
-11 59 -15 65 -15 18 -20 133 -7 144 6 5 17 27 24 48 22 66 55 133 65 133 5 0
28 20 51 44 23 23 52 48 64 55 25 13 21 31 -7 31 -10 0 -24 7 -31 15 -7 8 -16
12 -21 9 -5 -3 -20 7 -34 22 -28 30 -27 56 2 116 15 30 15 32 -7 50 -12 10
-30 18 -41 18 -10 0 -20 4 -23 9 -9 15 -102 24 -124 12 -12 -6 -36 -7 -63 -2
-33 6 -39 10 -26 16 22 9 22 24 0 23 -10 -1 -38 5 -63 12 -53 14 -144 99 -134
125 4 8 1 15 -6 15 -6 0 -23 9 -37 20 -14 11 -38 20 -53 20 -21 0 -30 7 -40
30 -27 66 23 111 137 122 18 2 33 6 33 10 0 4 19 9 43 11 23 2 -163 4 -414 5
l-457 2 -7 -37 c-4 -21 -12 -41 -18 -45 -6 -4 -8 -10 -4 -15 5 -4 12 -1 18 7
8 13 12 11 29 -10 11 -14 20 -29 20 -35 0 -5 -4 -4 -9 3 -7 11 -9 10 -14 -3
-5 -12 -11 -14 -26 -5 -16 8 -22 6 -31 -10 -6 -11 -20 -20 -33 -19 -21 1 -21
1 3 9 21 7 19 8 -17 9 -24 1 -43 -4 -43 -9 0 -6 -18 -17 -40 -26 -27 -11 -40
-22 -40 -35 0 -25 -26 -24 -40 0 -13 26 -13 61 1 61 6 0 8 8 4 20 -4 13 1 25
14 37 12 10 21 25 21 35 0 10 7 18 16 18 14 0 15 2 3 17 -13 15 -14 15 -17 0
-5 -25 -21 -20 -28 8 l-6 25 -584 0 -584 0 0 -66z m853 30 c36 -6 54 -34 22
-34 -9 0 -27 -7 -40 -16 -22 -14 -27 -14 -52 -1 -15 9 -36 18 -45 21 -10 3
-18 12 -18 21 0 16 61 20 133 9z m87 -14 c0 -5 -5 -10 -11 -10 -5 0 -7 5 -4
10 3 6 8 10 11 10 2 0 4 -4 4 -10z m-740 -250 c43 0 72 -9 65 -19 -2 -4 10 -7
28 -7 30 0 103 -3 137 -5 8 -1 58 -2 110 -3 52 0 97 -3 100 -6 3 -4 24 -12 48
-18 23 -7 42 -19 42 -27 0 -7 4 -15 8 -17 5 -1 11 -19 15 -40 6 -40 -2 -46
-78 -57 -31 -5 -39 -10 -37 -23 2 -15 -5 -18 -38 -18 -22 0 -40 5 -40 10 0 6
9 10 20 10 11 0 20 5 20 10 0 6 -9 10 -20 10 -11 0 -20 5 -20 10 0 6 -8 10
-18 10 -10 0 -23 5 -29 11 -7 7 -47 14 -90 17 -83 5 -108 17 -124 61 -7 18
-14 22 -32 17 -73 -22 -146 4 -147 51 0 17 33 48 38 34 2 -6 21 -11 42 -11z
m960 -40 c0 -13 -7 -20 -20 -20 -13 0 -20 7 -20 20 0 13 7 20 20 20 13 0 20
-7 20 -20z m0 -110 c0 -23 -4 -30 -20 -30 -16 0 -20 7 -20 30 0 23 4 30 20 30
16 0 20 -7 20 -30z m-360 -15 c0 -8 -7 -15 -15 -15 -26 0 -18 20 13 29 1 1 2
-6 2 -14z m621 -26 c57 10 62 9 87 -14 15 -14 30 -25 34 -25 17 0 39 -63 32
-89 -4 -14 -6 -35 -5 -46 3 -30 -21 -56 -54 -60 -17 -1 -58 -6 -92 -10 -45 -6
-63 -5 -63 4 0 6 -11 11 -24 11 -16 0 -27 7 -31 20 -3 11 -11 20 -17 20 -6 0
-8 31 -6 85 4 69 8 88 24 99 13 10 24 11 36 5 11 -6 41 -6 79 0z m807 -9 c29
-27 79 -51 95 -44 20 7 44 -23 29 -38 -7 -7 -12 -22 -12 -34 0 -29 -37 -42
-130 -46 -85 -3 -137 14 -142 47 -8 55 4 97 34 114 37 24 101 24 126 1z m3452
10 c0 -5 -2 -10 -4 -10 -3 0 -8 5 -11 10 -3 6 -1 10 4 10 6 0 11 -4 11 -10z
m-4676 -376 c9 -9 16 -32 16 -55 0 -38 -13 -52 -23 -25 -4 9 -19 12 -51 10
-40 -4 -46 -2 -46 15 0 23 28 54 41 45 5 -3 16 2 25 10 19 20 19 20 38 0z
m849 -11 c-7 -2 -19 -2 -25 0 -7 3 -2 5 12 5 14 0 19 -2 13 -5z m130 0 c-7 -2
-19 -2 -25 0 -7 3 -2 5 12 5 14 0 19 -2 13 -5z m47 -33 c5 -8 7 -22 4 -30 -4
-8 -12 -35 -19 -60 -7 -25 -14 -37 -14 -27 -1 17 -4 16 -31 -7 -29 -24 -35
-25 -173 -25 -151 0 -228 12 -208 32 6 6 11 18 11 27 0 32 53 68 129 87 95 24
287 26 301 3z m3837 -96 c-3 -3 -12 -4 -19 -1 -8 3 -5 6 6 6 11 1 17 -2 13 -5z
m-119 -50 c32 -7 45 -35 22 -49 -6 -4 -11 -61 -12 -133 -1 -70 -3 -110 -5 -89
-5 42 -12 46 -31 17 -29 -47 -56 -13 -73 95 -6 39 -13 84 -16 102 -7 41 21 74
57 68 14 -3 40 -8 58 -11z m126 1 c20 -15 16 -30 -13 -38 -14 -3 -21 1 -25 16
-9 37 6 46 38 22z m-4697 -47 c-5 -17 -2 -18 25 -13 20 5 28 4 24 -3 -9 -15
57 -32 119 -32 46 1 48 2 31 15 -19 14 -18 15 13 15 27 0 31 -3 22 -14 -9 -11
-8 -15 5 -20 9 -3 20 -3 26 0 5 3 12 -3 15 -15 3 -12 11 -21 17 -21 6 0 27
-12 45 -28 29 -24 33 -33 34 -82 2 -47 -1 -55 -15 -54 -10 1 -16 -2 -13 -6 2
-4 -8 -16 -23 -27 -25 -19 -45 -21 -222 -23 -201 -3 -339 12 -378 41 -9 8 -19
14 -21 16 -1 1 4 12 13 25 9 12 16 30 16 40 0 10 10 20 25 24 14 3 25 10 25
15 0 5 18 12 40 15 39 6 53 26 28 38 -10 5 -10 7 0 12 6 3 12 19 12 35 0 22 5
29 19 29 11 0 23 5 27 11 10 16 66 38 82 32 8 -3 11 -14 9 -25z m4771 11 c-19
-13 -28 -11 -28 5 0 9 7 12 21 9 16 -4 17 -8 7 -14z m-5584 -75 c9 -3 16 -12
16 -20 0 -8 5 -14 10 -14 24 0 7 -19 -22 -25 -20 -4 -46 -21 -63 -41 -29 -33
-33 -34 -70 -25 -31 7 -34 9 -15 11 l25 2 -25 8 c-14 4 -51 8 -82 9 -67 1 -77
15 -18 25 34 5 40 10 40 31 0 22 5 25 38 26 20 1 51 5 67 9 39 10 79 12 99 4z
m5536 -180 c0 -8 -7 -14 -15 -14 -15 0 -21 21 -9 33 10 9 24 -2 24 -19z m-55
-3 c3 -5 1 -12 -5 -16 -5 -3 -10 1 -10 9 0 18 6 21 15 7z m-5070 -46 c6 -2 -5
-9 -22 -16 -35 -14 -44 -29 -18 -29 19 0 19 -14 -1 -34 -22 -23 -59 -20 -88 7
-17 16 -22 27 -15 38 7 12 9 12 9 0 0 -8 3 -12 6 -9 3 4 0 16 -6 28 -7 12 -8
20 -3 17 5 -3 15 -2 22 2 11 7 90 5 116 -4z m1392 -117 c-3 -8 -6 -5 -6 6 -1
11 2 17 5 13 3 -3 4 -12 1 -19z m1193 -504 c0 -8 -4 -12 -10 -9 -5 3 -10 10
-10 16 0 5 5 9 10 9 6 0 10 -7 10 -16z m-1810 -233 l29 -28 168 -5 c92 -3 176
-9 186 -13 21 -9 22 -34 2 -41 -8 -4 -15 -12 -15 -19 0 -7 -13 -15 -30 -18
-16 -4 -47 -18 -67 -31 -21 -14 -53 -29 -71 -32 -22 -5 -37 -15 -43 -30 -6
-17 -17 -24 -36 -25 -94 -3 -193 -18 -193 -28 0 -4 -12 -13 -26 -20 -15 -6
-46 -27 -69 -46 -23 -19 -47 -35 -52 -35 -6 0 -29 -14 -51 -30 -23 -17 -42
-27 -42 -24 0 4 -9 -1 -20 -11 -11 -10 -20 -13 -20 -7 0 6 -7 9 -15 5 -9 -3
-25 3 -36 13 -21 19 -28 21 -134 32 -61 6 -70 10 -73 28 -2 12 4 28 12 37 8 8
12 18 8 22 -4 3 23 4 60 0 61 -5 67 -4 73 15 9 27 25 26 26 -2 1 -21 2 -21 6
-3 2 11 8 31 13 45 6 14 12 47 14 74 4 43 10 55 41 82 44 38 109 52 134 30 11
-10 30 -13 62 -9 43 5 47 8 59 42 10 32 35 56 63 60 5 0 21 -12 37 -28z m-952
-274 c16 -19 26 -67 14 -67 -6 0 -13 6 -16 13 -3 9 -7 8 -15 -4 -8 -12 -20
-14 -53 -9 -38 5 -43 8 -40 30 1 14 10 31 19 38 22 16 78 16 91 -1z m1462
-256 c0 -27 -25 -57 -35 -41 -4 7 -2 16 5 20 6 4 11 10 11 14 -3 23 0 36 9 31
6 -3 10 -14 10 -24z m-783 -563 c-3 -7 -5 -2 -5 12 0 14 2 19 5 13 2 -7 2 -19
0 -25z m-27 -73 c0 -20 -5 -25 -25 -25 -25 0 -25 1 -9 25 9 14 20 25 25 25 5
0 9 -11 9 -25z m-342 -93 c2 -7 -3 -12 -12 -12 -9 0 -16 7 -16 16 0 17 22 14
28 -4z m1036 -147 c-1 -5 -11 -14 -23 -20 -14 -7 -21 -19 -21 -38 0 -17 -6
-30 -17 -34 -10 -3 -27 -14 -39 -25 -21 -18 -138 -44 -239 -53 -72 -6 -122 10
-139 44 -14 26 -13 30 10 63 24 34 27 35 142 51 176 26 328 31 326 12z m-484
-275 c17 10 40 -5 40 -27 0 -14 -79 -54 -92 -47 -4 3 0 17 8 32 7 15 14 34 14
42 0 11 2 12 8 3 5 -8 13 -9 22 -3z m0 -74 c0 -3 -4 -8 -10 -11 -5 -3 -10 -1
-10 4 0 6 5 11 10 11 6 0 10 -2 10 -4z m-538 -50 c25 -5 37 -3 40 6 8 24 197
15 281 -13 40 -13 74 -25 76 -26 8 -6 -43 -43 -58 -43 -9 0 -38 -11 -65 -25
-32 -16 -66 -25 -96 -25 -50 0 -195 -56 -215 -83 -13 -19 -64 -30 -143 -32
-37 0 -67 -6 -75 -14 -10 -11 -9 -12 2 -6 10 5 12 4 7 -4 -4 -6 -13 -8 -19 -4
-6 4 -25 6 -42 5 -39 -3 -79 31 -70 59 4 11 2 19 -4 19 -22 0 -10 26 24 49 21
14 43 21 55 18 22 -6 28 8 8 16 -7 3 -4 6 7 6 42 2 95 22 95 37 0 8 8 17 18
21 9 3 24 15 33 26 16 19 89 39 99 26 3 -3 21 -9 42 -13z m-842 -916 c0 -5 -7
-7 -15 -4 -8 4 -15 8 -15 10 0 2 7 4 15 4 8 0 15 -4 15 -10z m5261 -319 c11
-13 19 -29 19 -37 0 -17 -40 -54 -58 -54 -8 0 -27 -13 -43 -29 -21 -22 -40
-30 -81 -35 -123 -15 -177 -17 -195 -8 -13 8 -29 5 -58 -9 -22 -10 -44 -18
-48 -19 -5 0 -15 -6 -23 -14 -16 -17 -103 -44 -183 -57 -107 -17 -295 -6 -310
19 -4 6 -27 14 -51 18 -40 6 -44 5 -32 -8 10 -13 9 -17 -10 -22 -39 -12 -230
-18 -292 -9 -55 7 -60 10 -68 38 -4 18 -3 34 3 40 6 6 95 10 234 11 168 0 228
4 239 13 9 8 16 11 16 8 0 -3 19 2 43 13 23 10 69 21 102 25 33 4 87 14 120
22 33 8 107 17 163 19 65 3 114 10 132 19 16 8 36 15 44 15 8 0 19 7 23 15 14
24 138 52 222 50 64 -1 76 -4 92 -24z m412 -396 c8 -8 17 -12 19 -9 10 10 110
-17 137 -37 64 -47 83 -99 111 -299 18 -124 21 -145 27 -160 7 -18 10 -31 18
-90 8 -60 28 -126 53 -175 11 -22 36 -92 57 -155 20 -63 45 -127 56 -142 10
-15 19 -32 19 -37 0 -10 23 -67 41 -104 13 -25 36 -96 44 -137 4 -19 20 -62
35 -95 42 -93 48 -109 55 -159 4 -25 11 -49 15 -51 5 -3 14 -31 20 -63 7 -31
18 -69 25 -83 8 -14 20 -56 29 -95 8 -38 20 -91 26 -119 20 -90 27 -157 18
-204 -12 -70 -38 -334 -33 -341 2 -4 7 -49 11 -101 5 -79 4 -98 -9 -111 -9 -9
-21 -36 -28 -62 -6 -25 -15 -46 -20 -46 -17 0 -49 -40 -49 -60 0 -12 -7 -20
-17 -21 -15 0 -15 -2 2 -9 l20 -9 -20 0 c-17 -1 -17 -3 -5 -11 11 -7 11 -10 2
-10 -7 0 -10 -4 -7 -10 4 -7 -657 -9 -1977 -8 -1091 1 -1956 4 -1923 8 l60 7
-53 1 c-33 1 -51 6 -47 12 3 5 -2 10 -12 10 -13 0 -15 3 -5 8 9 7 10 15 3 35
-12 32 -19 33 -37 10 -12 -16 -13 -15 -14 15 0 25 -4 32 -20 32 -16 0 -20 -7
-20 -35 0 -28 -4 -35 -20 -35 -18 0 -20 7 -20 75 0 43 -4 75 -10 75 -5 0 -10
12 -10 26 0 14 -4 23 -10 19 -6 -3 -10 -15 -10 -26 0 -35 -19 -20 -28 24 -6
23 -10 32 -11 20 -1 -26 -12 -28 -44 -11 -12 6 -43 10 -69 9 -28 -1 -48 2 -48
9 0 15 -16 12 -34 -5 -20 -20 -25 -9 -27 59 -2 52 -18 91 -20 49 -1 -10 -5 1
-11 25 -12 55 -28 54 -28 -3 0 -43 -1 -45 -27 -44 -19 1 -22 3 -10 6 14 4 17
11 13 26 -3 12 -6 30 -6 40 0 12 -8 17 -30 17 -16 0 -30 4 -30 10 0 5 -16 12
-35 16 -21 4 -40 15 -47 27 -14 27 -28 41 -56 56 -14 7 -22 21 -22 36 0 16 -6
25 -15 25 -18 0 -20 26 -2 34 9 5 9 7 0 12 -7 3 -13 12 -13 20 0 12 -4 12 -20
4 -15 -8 -18 -8 -14 3 7 19 -25 30 -42 16 -11 -9 -14 -8 -14 4 0 8 -6 18 -12
20 -10 4 -10 7 0 15 8 5 10 16 5 28 -6 17 -5 17 10 5 15 -12 17 -11 17 2 0 9
-14 25 -30 37 -17 12 -30 29 -30 39 0 17 -24 50 -72 99 -19 20 -22 35 -24 113
-3 94 -14 139 -14 55 0 -34 -4 -46 -12 -44 -15 5 -27 62 -28 138 0 30 -5 62
-10 70 -7 11 -10 11 -10 2 0 -7 -5 -10 -10 -7 -6 3 -10 24 -10 46 0 28 -4 39
-15 39 -9 0 -21 12 -27 27 -15 38 -15 38 -17 82 0 22 -8 47 -17 55 -12 13 -15
31 -11 84 10 128 27 235 39 250 7 8 18 36 24 61 5 25 15 45 21 44 7 -2 21 9
32 22 18 24 22 39 36 147 3 26 13 54 21 62 8 8 14 20 14 26 0 19 79 113 106
128 13 7 24 19 24 26 0 7 9 21 20 31 11 10 20 24 20 32 0 7 5 13 11 13 6 0 19
10 28 22 13 16 31 22 70 24 31 2 67 12 87 24 40 25 102 21 174 -12 32 -15 74
-22 145 -26 76 -4 103 -9 112 -21 6 -9 9 -19 7 -23 -3 -5 6 -8 20 -8 14 0 37
-11 52 -25 26 -24 26 -25 5 -25 -31 0 -26 -15 19 -60 33 -33 40 -36 40 -20 0
17 6 19 50 17 52 -2 62 -16 19 -28 -18 -5 -14 -7 20 -8 39 -1 48 -6 90 -52 25
-28 56 -55 69 -60 15 -6 22 -17 22 -34 0 -14 5 -25 11 -25 5 0 8 -4 5 -9 -3
-5 7 -14 22 -19 24 -8 29 -15 27 -41 -3 -45 -15 -51 -15 -7 l0 37 -29 -17
c-29 -17 -44 -54 -34 -81 7 -17 33 -17 34 0 0 10 2 10 6 0 3 -9 29 -13 78 -13
l73 0 4 -47 c4 -47 0 -70 -9 -45 -10 27 -23 9 -29 -40 -4 -29 -9 -47 -11 -40
-3 6 -9 12 -15 12 -18 0 -68 -58 -68 -80 0 -12 -7 -28 -15 -36 -17 -17 -20
-44 -6 -44 5 0 12 -13 16 -29 4 -19 14 -31 28 -35 20 -5 22 -11 19 -51 -3 -36
-1 -45 12 -45 19 0 19 -4 7 -48 -8 -25 -7 -32 5 -32 8 0 14 -9 14 -21 0 -19 2
-20 17 -8 13 11 17 11 20 1 7 -19 23 -4 23 22 0 34 19 46 72 46 26 0 48 5 48
10 0 6 14 10 30 10 17 0 30 -4 30 -10 0 -5 -9 -10 -20 -10 -11 0 -20 -4 -20
-10 0 -5 9 -10 19 -10 11 0 22 -6 24 -12 4 -8 6 -7 6 3 2 27 26 42 41 24 8
-10 30 -15 66 -15 29 0 56 -4 59 -10 3 -5 19 -10 36 -10 16 0 29 -5 29 -10 0
-7 20 -10 50 -9 33 2 55 -3 67 -13 10 -8 25 -18 33 -22 8 -3 -21 -4 -65 -2
-44 2 -63 1 -42 -1 32 -4 37 -8 37 -29 0 -14 7 -33 16 -41 10 -11 14 -26 10
-44 -6 -31 13 -53 38 -43 19 7 21 25 4 43 -11 11 -10 13 3 8 15 -5 15 -1 6 28
-13 43 -4 65 27 65 13 0 31 3 40 6 30 11 16 24 -26 24 l-43 1 40 18 c22 11 36
20 31 20 -5 1 -3 8 4 16 8 9 21 13 36 9 19 -5 26 -1 34 21 5 14 10 43 11 63 0
25 3 31 7 19 7 -16 10 -16 27 -3 14 10 38 14 75 12 38 -2 43 -2 15 2 l-40 6
45 6 45 7 -42 1 c-35 2 -43 6 -43 21 0 17 9 20 80 23 77 3 80 2 80 -19 0 -31
42 -31 67 0 10 12 30 27 44 34 15 6 35 30 48 57 21 45 22 46 67 46 27 0 43 4
39 10 -3 6 -19 10 -36 10 -16 0 -29 4 -29 9 0 11 106 35 119 27 4 -3 16 3 26
14 10 11 26 20 35 20 10 0 20 9 23 20 4 15 14 20 41 20 20 0 36 4 36 10 0 5
11 12 25 16 13 3 27 14 30 24 3 10 18 20 33 23 26 5 144 90 150 108 2 5 14 9
26 9 12 0 26 4 32 9 5 5 36 19 68 30 33 11 62 24 65 29 3 4 31 14 61 21 30 8
66 22 79 32 13 11 33 19 45 19 12 0 41 11 66 24 25 13 62 26 83 30 20 4 37 10
37 14 0 4 12 8 28 9 48 2 168 40 190 59 13 10 32 21 44 24 13 4 26 19 34 44 8
21 25 50 39 64 30 30 30 31 4 82 -14 26 -27 39 -35 36 -8 -3 -14 -4 -14 -2 0
3 -3 11 -6 20 -4 11 0 16 12 17 11 0 14 3 7 6 -7 2 -13 10 -13 16 0 15 44 57
59 57 5 0 15 18 21 40 6 22 15 40 20 40 6 0 10 5 10 11 0 6 7 17 15 25 8 9 14
31 13 52 0 21 4 46 9 57 6 11 12 23 13 27 1 4 4 16 7 26 3 11 23 24 56 34 66
21 102 22 120 3z m-3047 -970 c-3 -22 -19 -23 -22 -2 -1 9 4 17 11 17 7 0 12
-7 11 -15z m1294 -315 c0 -5 -2 -10 -4 -10 -3 0 -8 5 -11 10 -3 6 -1 10 4 10
6 0 11 -4 11 -10z m-880 -80 c0 -5 -2 -10 -4 -10 -3 0 -8 5 -11 10 -3 6 -1 10
4 10 6 0 11 -4 11 -10z m160 -45 c0 -28 -17 -34 -27 -9 -3 9 0 20 8 25 19 12
19 12 19 -16z m-460 -10 c10 -12 10 -15 -4 -15 -9 0 -16 7 -16 15 0 8 2 15 4
15 2 0 9 -7 16 -15z m4800 -1602 c-1 -18 -16 -31 -40 -34 -17 -3 -26 -11 -28
-28 -4 -26 14 -43 39 -36 9 3 22 -2 29 -11 18 -20 -1 -34 -47 -34 -44 0 -73
30 -73 76 0 59 14 74 70 74 28 0 50 -3 50 -7z m180 -19 c16 -40 12 -60 -16
-93 -37 -44 -91 -44 -128 0 -28 33 -32 53 -16 93 9 25 14 26 80 26 66 0 71 -1
80 -26z m-619 -3 c31 16 62 7 70 -21 10 -38 10 -120 0 -120 -5 0 -16 -3 -25
-6 -12 -5 -15 5 -18 48 -2 41 -7 54 -20 56 -15 3 -18 -5 -18 -52 0 -53 -1 -56
-25 -56 -21 0 -25 5 -25 29 0 15 -3 49 -6 74 -6 42 -5 46 17 49 13 1 25 0 27
-4 2 -4 12 -3 23 3z m-577 -17 c20 -19 20 -28 1 -44 -30 -25 -70 15 -45 45 16
19 25 19 44 -1z m465 2 c7 -8 13 -43 14 -78 2 -57 0 -63 -19 -66 -19 -3 -22 3
-29 52 -4 39 -11 56 -21 56 -10 0 -14 -14 -14 -55 0 -51 -2 -55 -24 -55 -20 0
-24 6 -30 46 -3 26 -6 60 -6 76 0 26 3 28 35 26 19 -1 37 1 41 5 12 12 41 8
53 -7z m406 -86 c0 -18 -6 -26 -23 -28 -24 -4 -38 18 -28 44 3 9 15 14 28 12
17 -2 23 -10 23 -28z"/>
<path d="M210 8555 c0 -16 16 -20 24 -6 3 5 -1 11 -9 15 -9 3 -15 0 -15 -9z"/>
<path d="M975 8010 c4 -6 11 -8 16 -5 14 9 11 15 -7 15 -8 0 -12 -5 -9 -10z"/>
<path d="M5440 2640 c0 -5 5 -10 10 -10 6 0 10 5 10 10 0 6 -4 10 -10 10 -5 0
-10 -4 -10 -10z"/>
<path d="M2636 1844 c-4 -9 -4 -19 -1 -22 2 -3 7 3 11 12 4 9 4 19 1 22 -2 3
-7 -3 -11 -12z"/>
<path d="M1282 1830 c0 -14 2 -19 5 -12 2 6 2 18 0 25 -3 6 -5 1 -5 -13z"/>
<path d="M2393 1745 c6 -82 -4 -108 -18 -46 -7 33 -16 42 -63 61 -26 10 -36
10 -45 1 -9 -9 -8 -14 3 -22 13 -8 12 -12 -7 -28 -14 -12 -23 -31 -23 -48 -1
-26 -2 -27 -15 -9 -7 10 -18 15 -23 12 -13 -8 -22 -46 -11 -46 5 0 9 -18 9
-40 0 -22 4 -40 9 -40 5 0 12 -10 16 -22 l7 -23 7 25 c6 22 8 23 14 7 4 -10 7
-30 7 -43 0 -15 6 -24 16 -24 14 0 15 7 10 40 -5 33 -3 40 10 40 13 0 15 -7
10 -37 -5 -29 -1 -49 18 -86 14 -26 27 -43 31 -37 7 12 26 14 24 3 -3 -16 23
-73 32 -68 4 3 33 -1 62 -10 30 -8 61 -13 70 -9 10 3 17 1 17 -5 0 -6 18 -14
40 -17 30 -5 40 -11 40 -25 0 -12 7 -19 20 -19 13 0 20 -7 20 -20 0 -38 45
-56 167 -64 28 -2 57 -7 63 -11 5 -3 36 -8 68 -11 31 -2 59 -9 60 -14 2 -6 13
-10 25 -10 24 0 57 -27 53 -43 -2 -7 -1 -9 1 -4 7 11 58 8 71 -5 9 -9 12 -9
12 0 0 17 18 15 36 -3 21 -20 44 -19 44 3 0 12 3 13 8 5 12 -19 78 -43 117
-43 19 0 35 -4 35 -9 0 -16 48 -21 240 -26 102 -3 233 -8 293 -12 77 -4 107
-3 107 6 0 7 24 11 70 11 l70 0 0 40 c0 37 -2 40 -27 41 -16 0 -44 7 -63 14
-32 13 -33 14 -13 20 49 15 8 22 -99 18 -81 -3 -128 -10 -166 -25 -60 -24 -88
-13 -77 29 3 13 1 23 -5 23 -5 0 -10 -15 -11 -32 l-1 -33 -10 33 c-12 36 -23
40 -50 15 -17 -15 -18 -15 -18 0 0 12 -8 17 -26 17 -16 0 -23 4 -18 11 3 6 0
15 -7 20 -21 13 -29 11 -29 -8 -1 -15 -4 -13 -21 7 -11 14 -26 33 -34 42 -8
10 -20 15 -27 13 -7 -3 -18 5 -23 17 -6 13 -19 27 -31 32 -11 5 -28 29 -38 53
-21 50 -29 53 -45 15 -10 -25 -16 -27 -52 -24 -23 3 -44 0 -48 -6 -14 -23 -81
-18 -81 6 0 27 -65 48 -130 41 -30 -3 -49 -6 -42 -7 6 -1 12 -10 12 -20 0 -17
-5 -18 -55 -10 -31 5 -79 9 -106 11 -51 2 -51 2 -66 47 -8 25 -24 54 -37 65
-12 12 -25 29 -29 38 -3 9 -18 22 -32 29 -14 6 -25 15 -25 20 0 4 -16 8 -35 8
-34 0 -35 1 -35 40 0 22 5 40 10 40 6 0 10 9 10 20 0 17 -7 20 -40 20 -38 0
-40 2 -40 30 0 28 -2 30 -38 30 -45 0 -88 30 -78 55 3 9 -3 24 -14 35 -37 37
-43 26 -37 -65z"/>
<path d="M2737 1663 c6 -40 10 -49 18 -42 7 8 -7 79 -16 79 -4 0 -5 -17 -2
-37z"/>
<path d="M3520 1604 c0 -14 3 -14 15 -4 8 7 15 14 15 16 0 2 -7 4 -15 4 -8 0
-15 -7 -15 -16z"/>
<path d="M2840 1555 c0 -8 5 -15 10 -15 6 0 10 7 10 15 0 8 -4 15 -10 15 -5 0
-10 -7 -10 -15z"/>
<path d="M3848 1538 c-9 -5 -6 -7 9 -5 12 2 25 6 28 8 8 9 -23 6 -37 -3z"/>
<path d="M2488 233 c7 -3 16 -2 19 1 4 3 -2 6 -13 5 -11 0 -14 -3 -6 -6z"/>
<path d="M7684 169 c-3 -6 -1 -16 5 -22 8 -8 11 -5 11 11 0 24 -5 28 -16 11z"/>
<path d="M7736 172 c-3 -6 -1 -14 5 -17 15 -10 25 3 12 16 -7 7 -13 7 -17 1z"/>
<path d="M7756 103 c-6 -14 -5 -15 5 -6 7 7 10 15 7 18 -3 3 -9 -2 -12 -12z"/>
<path d="M7708 83 c6 -2 18 -2 25 0 6 3 1 5 -13 5 -14 0 -19 -2 -12 -5z"/>
<path d="M2505 8877 c28 -12 57 -29 65 -38 13 -14 32 -15 159 -8 l143 8 37
-34 c39 -38 47 -39 136 -25 46 7 66 16 84 37 38 44 70 56 146 57 71 0 165 -20
165 -35 0 -5 18 -9 41 -9 22 0 38 -4 35 -9 -10 -16 38 -21 91 -9 36 7 55 17
59 30 3 10 19 25 35 33 16 9 29 18 29 20 0 3 -287 5 -637 5 l-638 -1 50 -22z"/>
<path d="M3985 8890 c3 -5 8 -10 11 -10 2 0 4 5 4 10 0 6 -5 10 -11 10 -5 0
-7 -4 -4 -10z"/>
<path d="M4016 8885 c7 -18 56 -15 62 3 2 8 -9 12 -32 12 -28 0 -34 -3 -30
-15z"/>
<path d="M4310 8878 c0 -13 7 -31 15 -41 7 -11 16 -36 20 -57 4 -26 14 -41 31
-51 14 -7 22 -18 20 -26 -6 -16 48 -28 128 -28 50 0 61 3 74 23 8 12 20 22 27
22 7 0 15 8 18 18 2 12 18 22 38 26 19 5 28 10 22 13 -19 7 -16 27 7 41 12 7
18 17 15 22 -8 14 24 27 84 33 30 4 59 11 65 17 7 7 -81 10 -277 10 l-287 0 0
-22z"/>
<path d="M5920 8892 c0 -9 107 -35 118 -28 5 3 75 7 157 10 84 3 152 9 158 15
8 8 -54 11 -211 11 -122 0 -222 -3 -222 -8z"/>
<path d="M7296 8885 c-11 -8 -26 -15 -33 -15 -7 0 -36 -11 -65 -25 -59 -29
-85 -31 -107 -10 -9 8 -36 17 -59 21 -37 6 -44 4 -48 -12 -5 -17 -13 -19 -92
-15 -48 2 -89 7 -92 12 -3 4 -12 4 -19 0 -7 -5 -11 -13 -7 -19 3 -6 -2 -8 -13
-5 -32 8 -43 -28 -35 -110 8 -87 19 -114 40 -97 11 10 15 9 19 -1 4 -10 19
-13 48 -11 30 3 47 -2 62 -15 50 -46 68 -53 147 -53 43 0 78 4 78 9 0 9 104
23 180 25 37 1 47 -3 54 -21 7 -14 22 -23 48 -27 32 -5 38 -10 38 -31 0 -22 4
-25 33 -25 65 1 117 17 142 44 36 39 85 113 97 146 6 19 17 30 29 30 13 0 19
7 19 23 0 28 81 107 109 107 18 0 21 6 21 45 l0 45 -287 0 c-237 -1 -291 -3
-307 -15z"/>
<path d="M6848 8573 c6 -2 18 -2 25 0 6 3 1 5 -13 5 -14 0 -19 -2 -12 -5z"/>
<path d="M3360 8370 c-19 -5 -55 -11 -79 -14 -24 -3 -47 -9 -50 -14 -10 -15
-43 -24 -151 -43 -36 -6 -71 -14 -79 -18 -30 -15 -21 -29 23 -35 25 -4 49 -14
54 -21 4 -8 31 -19 60 -25 55 -10 121 -40 151 -68 11 -9 31 -25 45 -35 43 -30
103 -140 120 -219 6 -28 29 -37 41 -17 4 6 9 27 12 47 7 49 10 313 5 379 -4
50 -6 53 -46 73 -46 22 -53 22 -106 10z"/>
<path d="M4525 8342 c-16 -2 -38 -12 -47 -22 -11 -11 -25 -16 -38 -13 -16 4
-20 1 -20 -21 0 -15 -9 -39 -19 -54 -25 -34 -48 -186 -47 -297 1 -66 5 -86 22
-107 24 -30 39 -25 50 17 8 31 75 139 119 190 59 68 78 85 103 91 15 3 46 14
70 25 29 14 71 22 139 26 54 2 101 7 105 9 15 9 8 23 -7 17 -20 -7 -49 19 -65
58 -12 27 -16 29 -66 29 -31 0 -79 9 -112 21 -62 23 -140 36 -187 31z"/>
<path d="M6608 8281 c-7 -12 -19 -21 -26 -21 -10 0 -10 -5 -1 -22 15 -29 49
-62 49 -48 0 5 11 10 24 10 12 0 36 12 52 27 25 23 26 28 12 31 -10 2 -18 10
-18 18 0 8 -10 14 -24 14 -13 0 -31 3 -40 6 -9 3 -20 -3 -28 -15z"/>
<path d="M5920 8245 c0 -8 2 -15 4 -15 2 0 6 7 10 15 3 8 1 15 -4 15 -6 0 -10
-7 -10 -15z"/>
<path d="M5000 8194 c0 -8 5 -12 10 -9 6 3 10 10 10 16 0 5 -4 9 -10 9 -5 0
-10 -7 -10 -16z"/>
<path d="M6905 8150 c4 -6 11 -8 16 -5 14 9 11 15 -7 15 -8 0 -12 -5 -9 -10z"/>
<path d="M6780 8130 c0 -5 5 -10 10 -10 6 0 10 5 10 10 0 6 -4 10 -10 10 -5 0
-10 -4 -10 -10z"/>
<path d="M4824 7876 c-43 -20 -54 -31 -72 -74 -12 -28 -22 -63 -22 -79 1 -44
34 -107 76 -142 37 -30 42 -32 103 -27 56 4 69 9 109 44 50 42 59 62 61 133 2
79 -12 102 -83 138 -74 37 -105 38 -172 7z"/>
<path d="M6130 7870 c0 -5 5 -10 11 -10 5 0 7 5 4 10 -3 6 -8 10 -11 10 -2 0
-4 -4 -4 -10z"/>
<path d="M7863 7723 c-13 -2 -23 -9 -23 -14 0 -5 -17 -9 -38 -9 -36 0 -38 -1
-48 -45 -7 -32 -7 -44 0 -43 6 1 27 -4 47 -11 36 -14 67 -60 54 -81 -10 -16
-14 -220 -4 -226 5 -3 9 -16 9 -29 0 -12 7 -25 15 -29 13 -5 15 26 15 244 0
138 -1 249 -2 249 -2 -1 -13 -4 -25 -6z"/>
<path d="M4301 7135 c-38 -41 -41 -49 -41 -101 0 -57 14 -92 58 -147 12 -16
22 -37 22 -48 0 -10 7 -19 15 -19 8 0 15 -4 15 -10 0 -5 6 -10 14 -10 7 0 16
15 19 34 3 18 15 53 27 77 12 24 28 76 34 115 13 79 9 91 -44 125 -55 35 -74
32 -119 -16z"/>
<path d="M5805 6990 c-3 -5 3 -10 14 -10 12 0 21 5 21 10 0 6 -6 10 -14 10 -8
0 -18 -4 -21 -10z"/>
<path d="M5781 6946 c-9 -10 -8 -16 4 -26 13 -11 15 -8 15 14 0 30 -3 32 -19
12z"/>
<path d="M0 6748 c0 -88 2 -99 15 -88 8 7 15 18 15 26 0 22 21 27 35 8 13 -17
14 -12 15 46 0 65 0 66 -27 65 -21 0 -27 4 -25 16 1 9 -4 19 -13 23 -13 5 -15
-9 -15 -96z"/>
<path d="M5688 6823 c6 -2 18 -2 25 0 6 3 1 5 -13 5 -14 0 -19 -2 -12 -5z"/>
<path d="M5520 6780 c0 -33 3 -40 20 -40 17 0 20 7 20 40 0 33 -3 40 -20 40
-17 0 -20 -7 -20 -40z"/>
<path d="M4550 6728 c-31 -9 -33 -11 -15 -19 11 -4 39 -8 63 -8 31 -1 42 3 42
14 0 8 -6 15 -14 15 -8 0 -20 2 -28 4 -7 2 -29 0 -48 -6z"/>
<path d="M720 5385 c0 -15 6 -25 14 -25 22 0 30 19 16 35 -18 22 -30 18 -30
-10z"/>
<path d="M7147 5393 c-15 -2 -25 -9 -22 -14 3 -5 0 -6 -8 -3 -8 3 -39 -4 -69
-16 -53 -20 -56 -22 -62 -63 -9 -53 4 -63 89 -72 58 -7 67 -5 139 30 77 37 97
57 100 104 1 20 -3 26 -19 27 -11 1 -42 4 -70 7 -27 3 -62 3 -78 0z"/>
<path d="M7865 4790 c-3 -5 -15 -10 -26 -10 -10 0 -37 -17 -59 -37 -22 -21
-47 -44 -55 -51 -18 -15 -20 -63 -3 -80 7 -7 20 -12 30 -12 10 0 18 -4 18 -10
0 -5 18 -10 41 -10 22 0 49 -5 60 -10 18 -10 19 -6 19 110 0 109 -7 139 -25
110z"/>
<path d="M7613 4453 c-7 -2 -13 -19 -13 -36 1 -35 40 -73 66 -63 11 4 13 0 8
-21 -5 -19 -4 -24 5 -19 7 5 21 0 32 -10 17 -15 22 -16 29 -4 7 11 11 10 25
-3 9 -10 20 -17 25 -17 5 0 10 -14 12 -32 2 -23 11 -36 33 -49 53 -31 55 -28
55 81 0 99 0 100 -24 100 -14 0 -26 7 -28 15 -3 14 -6 13 -28 -2 -27 -19 -61
-18 -72 2 -4 7 -23 16 -42 19 -22 4 -36 13 -39 26 -5 19 -19 24 -44 13z m174
-107 c-5 -15 -47 -16 -47 -1 0 18 9 23 31 18 11 -3 18 -11 16 -17z"/>
<path d="M536 4234 c-20 -20 -20 -66 -1 -104 11 -22 12 -30 2 -33 -6 -2 -3 -3
8 -1 11 2 46 4 77 4 l57 0 8 38 c10 51 6 63 -25 89 -33 28 -102 31 -126 7z"/>
</g>
</svg>
