<?xml version="1.0" standalone="no"?>
<!DOCTYPE svg PUBLIC "-//W3C//DTD SVG 20010904//EN"
 "http://www.w3.org/TR/2001/REC-SVG-20010904/DTD/svg10.dtd">
<svg version="1.0" xmlns="http://www.w3.org/2000/svg"
 width="1200.000000pt" height="1453.000000pt" viewBox="0 0 1200.000000 1453.000000"
 preserveAspectRatio="xMidYMid meet">
<metadata>
Created by potrace 1.16, written by Peter Selinger 2001-2019
</metadata>
<g transform="translate(0.000000,1453.000000) scale(0.100000,-0.100000)"
fill="#000000" stroke="none">
<path d="M0 7265 l0 -7265 1794 0 c1426 0 1795 3 1799 13 4 9 6 9 6 0 1 -10
848 -13 4201 -13 l4200 0 0 7265 0 7265 -6000 0 -6000 0 0 -7265z m4436 6655
c3 -91 5 -180 5 -198 1 -23 4 -31 11 -24 10 10 17 122 8 122 -3 0 -5 47 -5
104 -1 67 3 104 10 103 5 -1 9 6 7 15 -1 9 2 19 8 23 5 3 10 11 10 16 0 6 -4
7 -10 4 -12 -8 -12 -9 4 45 13 44 13 44 26 20 7 -13 16 -80 20 -150 4 -70 10
-132 14 -138 15 -24 22 -2 18 52 -3 37 0 56 7 56 7 0 10 16 7 45 -3 27 -1 43
5 40 8 -5 14 69 10 115 -1 13 0 13 8 0 5 -8 12 -67 16 -130 4 -67 12 -118 19
-122 8 -6 7 -11 -3 -17 -9 -6 -11 -16 -7 -27 6 -16 9 -16 17 -4 9 12 10 12 5
-3 -3 -11 -3 -24 1 -30 3 -6 7 -28 8 -49 1 -29 -2 -38 -12 -34 -7 3 -13 -1
-13 -10 0 -8 4 -13 9 -9 10 6 9 -41 -1 -51 -3 -3 -2 -21 4 -41 9 -32 3 -691
-6 -701 -2 -1 -6 25 -10 58 -4 37 -11 58 -17 54 -6 -3 -8 -13 -4 -23 5 -13 4
-13 -6 -4 -12 12 -20 184 -19 381 0 47 -4 72 -11 72 -6 0 -8 -7 -5 -16 3 -8 1
-24 -4 -35 -7 -13 -7 -19 -1 -19 7 0 7 -9 0 -27 -5 -15 -9 -65 -8 -111 1 -52
-2 -87 -9 -91 -7 -4 -12 -61 -13 -159 0 -84 -5 -152 -10 -152 -5 0 -9 5 -9 12
0 6 -3 8 -7 4 -5 -4 0 -13 9 -20 9 -7 16 -19 15 -27 -3 -20 -47 -62 -49 -46 0
6 -3 26 -6 42 -2 17 -5 53 -6 82 0 31 -5 49 -11 45 -6 -3 -6 0 1 9 7 10 7 24
-2 49 -12 33 -13 28 -14 -65 -1 -55 -3 -110 -6 -122 -2 -13 -6 -33 -8 -45 -3
-13 -5 -26 -5 -30 -1 -5 -5 -8 -10 -8 -5 0 -8 19 -6 41 3 33 1 39 -8 30 -7 -7
-13 -46 -14 -94 -2 -120 -2 -119 -14 -112 -6 4 -9 27 -6 56 3 27 0 68 -5 92
-6 23 -11 56 -12 72 0 17 -5 36 -10 44 -7 10 -6 12 4 6 10 -6 12 -4 7 8 -4 10
-1 17 6 17 8 0 6 4 -3 10 -12 8 -12 10 -1 10 9 0 10 4 4 13 -5 6 -8 53 -7 102
2 50 0 102 -2 118 -6 28 -21 38 -21 12 0 -8 4 -15 9 -15 4 0 8 -5 8 -11 0 -5
-4 -8 -9 -4 -5 3 -12 1 -16 -5 -3 -5 2 -10 11 -10 17 0 17 -1 1 -12 -13 -10
-15 -20 -9 -43 4 -16 7 -68 5 -115 -1 -47 -2 -146 -3 -220 -1 -138 -14 -230
-32 -230 -5 0 -8 14 -6 30 2 19 -3 35 -12 41 -13 9 -12 10 3 5 11 -3 17 0 17
10 0 10 -6 14 -15 10 -13 -4 -15 8 -15 78 0 45 -2 85 -6 88 -3 3 -6 60 -7 127
-1 92 -4 121 -14 121 -7 0 -13 5 -13 11 0 5 5 7 10 4 6 -3 10 -1 10 4 0 6 -7
11 -15 11 -19 0 -19 16 -1 27 8 4 17 31 20 61 5 48 4 54 -17 62 -17 7 -18 9
-4 9 21 1 23 31 2 31 -8 0 -15 4 -15 10 0 5 6 7 14 4 10 -4 15 5 18 31 4 39 1
49 -22 58 -12 4 -12 6 2 6 15 1 17 10 14 56 -2 31 1 58 6 61 5 4 5 10 -1 17
-5 7 -8 36 -8 65 1 28 -2 52 -6 52 -4 0 -3 9 3 20 6 11 7 20 2 20 -5 0 -6 15
-4 32 5 31 4 32 -14 18 -18 -14 -18 -13 1 8 19 23 21 52 9 125 -3 20 -1 26 7
21 8 -5 9 -3 4 6 -8 12 -8 134 0 175 2 11 4 47 5 80 1 45 4 55 11 40 7 -15 8
-8 6 27 -1 34 1 44 9 37 14 -12 29 -140 26 -235 0 -39 3 -84 8 -100 l9 -29 0
30 c3 143 13 291 22 302 9 9 8 17 -1 28 -10 12 -10 15 4 15 18 0 18 -2 21 -77
1 -33 -2 -53 -9 -53 -7 0 -6 -3 2 -8 7 -5 12 -28 11 -58 -1 -81 3 -126 9 -119
4 3 7 54 8 113 3 142 3 144 16 159 6 8 8 16 4 20 -3 3 -6 1 -6 -6 0 -7 -4 -10
-10 -6 -5 3 -2 13 8 23 16 17 18 14 30 -53 7 -38 15 -144 18 -235z m290 158
c0 -35 4 -106 8 -159 4 -53 7 -138 7 -190 0 -61 4 -96 12 -101 9 -6 8 -11 -3
-18 -10 -6 -11 -10 -3 -10 14 0 6 -30 -13 -45 -13 -11 -25 -87 -12 -79 4 3 8
18 8 34 0 16 4 31 9 34 4 3 9 -39 9 -94 1 -64 -2 -100 -9 -100 -6 0 -3 -7 5
-16 18 -17 25 -139 15 -236 -4 -34 -19 -37 -20 -5 -1 12 -2 27 -4 32 -1 6 -3
28 -4 50 -2 31 -4 36 -10 20 -5 -11 -4 -30 0 -43 11 -29 11 -35 2 -29 -5 3 -9
-11 -9 -31 -1 -21 -4 -46 -7 -57 -3 -11 -6 -26 -6 -32 -1 -7 -6 -13 -12 -13
-5 0 -9 12 -8 28 4 35 -11 281 -18 306 -4 13 -1 16 7 11 8 -5 10 -2 6 11 -9
30 -9 113 -1 187 5 50 4 67 -5 67 -8 0 -10 7 -5 18 4 9 6 83 6 165 -1 82 3
147 8 147 5 0 9 -10 9 -22 2 -64 5 -80 13 -67 5 8 6 22 3 31 -3 10 0 26 6 38
7 13 7 20 0 20 -11 0 -14 149 -4 188 11 40 19 23 20 -40z m-566 -123 c-6 -7
-7 -16 -2 -19 4 -2 9 -44 10 -92 2 -48 7 -93 12 -99 6 -7 7 -15 3 -18 -9 -10
-13 -59 -5 -71 9 -15 9 -48 -1 -68 -6 -14 -3 -18 10 -18 12 0 14 -3 6 -8 -11
-7 -14 -132 -3 -132 3 0 5 -107 5 -238 0 -284 1 -303 24 -295 12 4 11 1 -4
-11 -20 -17 -20 -17 2 -13 21 5 21 4 6 -19 -9 -14 -13 -27 -9 -31 3 -3 6 -1 6
5 0 7 5 12 10 12 7 0 7 -6 2 -17 -5 -10 -7 -24 -5 -30 3 -7 -2 -13 -11 -13
-10 0 -13 6 -10 18 4 10 3 13 -3 6 -19 -25 -41 -23 -46 4 -3 15 -1 30 5 33 7
4 7 9 0 13 -11 6 -9 37 3 56 3 6 2 10 -3 10 -6 0 -10 17 -10 38 0 48 -7 106
-16 120 -8 14 -9 162 -1 183 3 10 2 20 -4 24 -7 4 -6 16 5 37 9 16 11 28 6 24
-14 -8 -22 71 -13 141 4 34 4 60 0 58 -8 -5 -12 52 -13 180 -1 85 0 90 19 87
15 -2 17 -1 6 7 -8 5 -12 18 -8 30 3 12 1 19 -4 15 -15 -9 -10 34 6 50 8 8 12
22 9 30 -3 9 -1 16 6 16 6 0 8 5 4 12 -4 7 -3 8 5 4 9 -6 9 -11 1 -21z m716
17 c-6 -10 18 -84 25 -77 3 2 6 -86 6 -198 1 -111 -1 -192 -4 -180 -3 14 -9
20 -19 16 -9 -3 -12 -13 -9 -24 5 -15 2 -18 -15 -16 -29 5 -38 21 -35 70 1 23
1 32 -2 20 -2 -13 -8 -23 -12 -23 -5 0 -5 20 0 45 5 25 5 55 0 67 -6 16 -4 27
8 36 9 7 10 11 4 7 -20 -10 -16 26 5 42 16 14 16 14 0 9 -10 -3 -20 -1 -23 5
-11 17 -17 199 -7 199 5 0 10 -19 10 -42 2 -147 4 -159 17 -148 9 7 13 29 11
60 -1 28 3 51 9 53 6 3 6 9 -3 19 -10 13 -9 18 3 28 8 7 15 19 15 26 0 8 5 14
11 14 5 0 8 -4 5 -8z m-676 -1202 c11 -6 17 -17 14 -24 -3 -8 2 -16 13 -19 13
-3 11 -5 -7 -6 -18 -1 -21 -4 -11 -10 9 -6 10 -11 2 -15 -7 -5 -7 -15 0 -32
11 -30 8 -384 -3 -384 -7 0 -12 25 -11 58 1 6 -3 12 -7 12 -10 0 -18 70 -26
230 -4 74 -9 139 -12 144 -3 5 1 6 8 1 9 -5 10 -2 5 14 -6 19 0 41 11 41 3 0
14 -5 24 -10z m720 -12 c0 -7 4 -7 13 0 9 7 19 4 39 -13 15 -13 24 -25 21 -29
-3 -3 -2 -13 2 -23 12 -26 11 -47 0 -55 -6 -5 -6 -11 2 -16 8 -5 9 -13 3 -22
-5 -8 -4 -22 2 -33 7 -14 7 -18 -2 -12 -6 4 -19 -3 -29 -14 -10 -12 -26 -21
-35 -21 -9 0 -16 -6 -16 -12 0 -9 -4 -8 -10 2 -9 13 -12 13 -21 -2 -12 -22
-23 -23 -43 -2 -11 10 -16 11 -16 3 0 -14 -44 29 -53 53 -3 9 -3 19 1 23 8 8
9 12 11 73 2 36 4 42 11 27 8 -19 9 -19 9 2 1 12 6 25 11 28 6 3 10 11 10 16
0 6 -5 7 -12 3 -6 -4 -8 -3 -5 4 4 5 17 8 29 4 14 -3 19 -1 14 6 -5 8 -2 10 8
6 9 -4 18 0 22 9 6 17 34 12 34 -5z m233 -165 c-18 -7 -16 -23 2 -23 12 0 14
-7 9 -27 -4 -16 -11 -34 -17 -40 -6 -9 -6 -13 2 -13 13 0 4 -49 -12 -65 -7 -7
-8 -6 -3 3 11 18 1 15 -19 -8 -18 -20 -18 -21 1 -14 18 7 18 6 -1 -15 -23 -23
-85 -46 -85 -30 0 5 -9 9 -21 9 -13 0 -18 4 -13 13 4 6 -1 5 -12 -4 -20 -17
-64 -10 -64 10 0 5 10 12 23 16 55 15 97 42 108 67 6 15 15 26 19 23 4 -3 13
2 20 11 10 11 15 12 21 3 4 -8 13 -3 24 15 10 15 15 30 11 33 -4 4 -9 -3 -13
-15 -6 -26 -10 -27 -31 -5 -16 16 -16 16 1 10 11 -4 19 -1 22 8 3 8 7 22 10
30 2 8 10 15 17 14 10 0 10 -2 1 -6z m-599 -239 c43 5 55 3 60 -10 3 -8 10
-13 15 -10 5 3 7 -4 3 -16 l-5 -21 -19 23 c-10 12 -20 21 -23 18 -2 -2 7 -17
20 -32 14 -16 25 -33 25 -38 0 -4 5 -8 12 -8 9 0 9 3 0 12 -7 7 -12 17 -12 23
0 5 9 -1 20 -15 12 -15 20 -19 20 -11 0 8 3 11 6 8 4 -4 1 -14 -6 -22 -10 -12
-10 -19 -2 -27 18 -18 14 -27 -9 -23 -15 3 -19 0 -15 -10 3 -8 -4 -21 -15 -29
-14 -9 -16 -15 -8 -18 8 -3 9 -9 4 -17 -5 -9 -19 -11 -41 -8 -30 5 -33 4 -24
-12 8 -16 4 -18 -35 -17 -23 1 -41 4 -38 9 2 4 -11 7 -30 7 -27 0 -36 5 -42
23 -4 12 -6 28 -6 35 1 6 -2 12 -7 12 -5 0 -10 17 -10 38 0 20 -3 47 -7 60 -6
17 -3 22 9 22 9 0 16 5 16 11 0 5 5 7 10 4 6 -3 10 -1 10 4 0 6 8 19 18 29 12
14 22 16 35 10 10 -5 42 -7 71 -4z m789 -63 c-2 -6 4 -8 12 -5 18 7 20 24 3
24 -6 0 -9 2 -6 5 9 9 35 -5 35 -20 0 -8 -4 -12 -9 -9 -4 3 -8 0 -8 -5 0 -17
-37 -13 -44 4 -3 8 -12 12 -21 9 -8 -3 -15 -1 -15 6 0 6 -5 8 -12 4 -6 -4 -8
-3 -5 3 6 10 -43 26 -51 18 -9 -8 11 -45 24 -45 8 0 14 -4 14 -10 0 -5 5 -10
11 -10 5 0 8 4 5 9 -3 5 5 11 19 13 19 4 25 1 25 -13 0 -9 8 -20 18 -22 13 -4
12 -5 -4 -6 -12 0 -25 -8 -28 -17 -4 -10 -2 -13 6 -8 16 10 88 13 82 3 -2 -5
-10 -6 -17 -4 -12 5 -41 -44 -32 -53 2 -3 7 3 11 12 3 9 13 16 21 16 12 0 12
-2 -1 -16 -9 -8 -13 -20 -10 -26 5 -7 0 -9 -14 -6 -12 4 -20 3 -17 -2 8 -13
-15 -67 -30 -69 -8 -1 -24 -2 -35 -3 -11 -1 -20 -10 -20 -19 0 -24 -22 -38
-53 -35 -21 3 -27 0 -23 -10 3 -8 2 -14 -3 -14 -11 0 -35 52 -32 72 1 9 -3 19
-9 23 -5 3 -10 21 -10 38 0 26 -2 29 -11 17 -9 -12 -10 -11 -4 5 4 11 9 26 12
33 3 8 0 10 -11 6 -24 -9 -20 13 5 26 11 7 18 18 15 25 -4 13 12 25 42 31 29
6 24 14 -5 10 -23 -2 -30 0 -26 10 6 17 37 18 64 4 13 -7 19 -7 19 0 0 5 -4
10 -9 10 -5 0 -12 7 -15 16 -3 8 -2 12 4 9 6 -3 13 0 16 9 5 12 15 11 67 -9
34 -13 61 -28 60 -34z m-539 -84 c4 4 4 -1 0 -11 -5 -14 -4 -17 4 -12 8 5 12
-1 12 -18 0 -18 -4 -24 -15 -20 -8 4 -15 2 -15 -4 0 -6 -3 -19 -7 -29 -6 -15
-4 -16 9 -5 13 10 16 9 21 -8 3 -11 0 -20 -6 -20 -8 0 -7 -4 2 -9 9 -6 10 -11
2 -15 -6 -4 -11 -16 -11 -27 0 -23 -57 -87 -101 -113 -17 -10 -29 -14 -25 -8
5 8 -3 10 -25 5 -22 -4 -30 -3 -26 5 5 6 -1 8 -14 5 -12 -4 -25 0 -30 8 -8 12
-12 11 -23 -4 -8 -10 -18 -19 -23 -20 -4 -1 -7 -5 -5 -9 1 -5 -5 -8 -14 -8
-11 0 -14 5 -10 16 5 12 2 15 -9 10 -10 -3 -14 -2 -9 5 3 6 15 9 25 6 20 -5
55 20 44 31 -3 4 -9 1 -13 -5 -5 -8 -13 -8 -31 1 -23 13 -23 13 -2 19 11 3 19
2 17 -2 -3 -4 13 -7 34 -6 31 0 36 3 30 16 -7 13 -4 15 21 11 19 -3 29 0 29 8
0 8 9 11 25 8 20 -4 26 -1 31 18 3 13 12 24 18 24 13 0 46 61 46 85 0 8 4 15
9 15 5 0 11 11 13 25 3 14 1 25 -3 25 -5 0 -9 10 -9 23 l1 22 12 -23 c7 -12
16 -19 21 -15z m-230 -390 c49 -49 100 -147 75 -147 -5 0 -9 8 -9 19 0 17 -38
37 -49 25 -3 -3 5 -7 17 -11 25 -6 29 -21 8 -29 -11 -4 -9 -11 9 -30 17 -18
22 -34 20 -66 -5 -85 -31 -138 -92 -184 -34 -25 -44 -28 -120 -28 -46 1 -88 5
-94 11 -7 7 -2 9 18 7 24 -4 25 -3 8 5 -11 5 -15 10 -9 10 7 1 11 9 10 19 -1
18 5 19 38 6 11 -4 17 -3 14 2 -6 9 21 14 90 17 18 1 32 7 32 14 0 7 9 17 20
23 11 6 18 15 15 19 -3 5 2 11 10 15 8 3 15 17 15 31 0 14 7 28 15 31 8 4 15
10 15 15 0 4 -8 6 -17 2 -17 -6 -17 -5 0 14 16 19 14 33 -5 33 -5 0 -7 -4 -3
-9 3 -5 1 -12 -5 -16 -5 -3 -10 -1 -10 4 0 26 -15 8 -17 -21 -1 -17 -8 -36
-14 -42 -8 -8 -9 -5 -4 14 12 38 11 52 -3 57 -7 3 -11 -1 -10 -8 2 -7 -7 -14
-19 -15 -13 -1 -27 -2 -33 -3 -5 0 -10 -15 -10 -33 0 -29 -1 -30 -18 -15 -14
13 -21 14 -30 5 -7 -7 -12 -8 -12 -4 0 5 -9 -2 -20 -15 -10 -13 -19 -18 -20
-11 0 17 -20 15 -20 -3 0 -26 -37 -16 -76 20 -20 19 -39 33 -42 30 -12 -12
-10 -42 2 -42 8 0 12 7 9 16 -3 11 -1 11 7 -2 9 -14 9 -21 0 -32 -8 -10 -8
-19 0 -34 9 -19 8 -21 -15 -21 -14 0 -25 5 -25 12 0 6 -9 21 -20 33 -18 19
-18 24 -7 34 12 9 16 5 21 -21 5 -26 9 -29 19 -19 9 11 9 14 0 18 -7 3 -13 15
-13 28 0 34 -18 41 -30 11 -12 -33 -45 -35 -53 -3 -6 20 -5 20 7 4 12 -15 15
-15 26 -2 7 8 9 15 4 15 -5 1 2 7 16 16 19 11 20 14 5 9 -18 -4 -20 -1 -17 33
2 20 4 48 4 61 0 18 2 20 9 10 6 -10 9 -6 9 14 0 15 5 27 10 27 6 0 10 5 10
11 0 5 -4 7 -10 4 -6 -4 -7 1 -3 11 4 11 8 13 11 6 2 -7 8 -10 13 -6 5 3 9 -2
9 -11 0 -9 5 -13 10 -10 6 4 8 10 5 15 -3 4 -2 16 1 25 5 12 9 13 14 5 11 -17
31 -3 23 16 -4 12 0 14 19 9 16 -4 31 -1 41 9 18 18 38 20 55 6 9 -7 9 -7 2 2
-14 17 -12 34 2 20 16 -16 31 -15 22 1 -4 6 1 5 12 -4 10 -8 33 -21 49 -27 29
-12 30 -12 9 6 -15 13 -18 21 -10 29 18 19 25 16 80 -40z m628 -127 c26 0 29
2 18 15 -7 9 -11 17 -8 20 8 8 48 -7 42 -16 -3 -5 5 -9 18 -9 16 0 19 -3 10
-9 -11 -6 -10 -16 5 -49 18 -42 33 -54 33 -27 0 8 8 15 18 15 15 1 15 2 -3 16
-14 12 -16 18 -7 21 7 3 19 11 26 19 12 11 15 10 19 -8 4 -14 11 -19 22 -15
11 5 17 -1 22 -23 3 -17 10 -33 14 -36 12 -7 11 -34 -1 -34 -5 0 -10 6 -10 14
0 8 -5 18 -11 22 -8 5 -10 -1 -7 -20 4 -21 3 -24 -8 -15 -7 6 -10 17 -7 25 3
8 0 21 -7 29 -7 8 -9 15 -5 15 4 0 2 7 -5 15 -20 24 -23 10 -5 -24 9 -17 11
-31 5 -31 -5 0 -10 -7 -10 -17 0 -9 -3 -14 -6 -10 -4 3 -13 0 -20 -8 -10 -10
-12 -20 -4 -39 6 -16 6 -26 0 -26 -5 0 -7 -6 -4 -14 3 -8 1 -17 -5 -21 -7 -3
-8 0 -5 9 4 11 0 16 -11 16 -9 0 -13 -4 -10 -10 3 -5 1 -10 -4 -10 -6 0 -11
-5 -11 -11 0 -5 5 -7 11 -4 6 4 5 -3 -3 -14 -13 -21 -13 -21 -19 6 l-6 28 -8
-32 c-4 -18 -13 -33 -21 -33 -7 0 -16 -4 -19 -10 -4 -6 1 -7 12 -4 13 4 14 3
5 -3 -7 -6 -40 -9 -72 -7 -51 2 -58 0 -52 -14 5 -14 3 -15 -10 -5 -8 7 -18 10
-21 6 -4 -3 -7 -1 -7 5 0 7 5 12 10 12 6 0 10 5 10 10 0 6 -7 10 -15 10 -8 0
-15 7 -15 15 0 8 -4 15 -10 15 -5 0 -10 7 -10 15 0 8 -5 15 -11 15 -7 0 -9 8
-4 23 4 12 9 39 11 60 2 21 8 47 14 56 5 10 6 22 2 26 -4 3 -2 6 3 4 20 -5 44
13 38 28 -5 13 -1 15 21 11 20 -4 26 -2 22 8 -3 7 0 15 7 18 7 2 3 5 -8 5 -17
1 -18 3 -5 11 11 7 19 5 29 -10 8 -13 25 -20 43 -20z m-368 -88 c3 -5 -3 -20
-12 -33 -27 -38 -22 -66 13 -84 l30 -16 -29 6 c-26 6 -27 5 -12 -10 9 -9 16
-19 17 -23 3 -23 9 -52 19 -87 10 -38 18 -93 23 -160 2 -24 -2 -29 -17 -27
-11 2 -15 -1 -11 -8 4 -6 13 -9 21 -6 20 8 26 -10 9 -24 -17 -14 -20 -40 -4
-40 5 0 7 -5 4 -10 -3 -6 1 -13 9 -16 9 -3 16 -9 16 -13 0 -12 -59 -29 -80
-24 -18 5 -20 2 -16 -23 3 -16 9 -30 13 -32 5 -1 15 -7 23 -13 11 -8 12 -12 2
-16 -7 -2 -19 -11 -26 -19 -8 -8 -33 -14 -56 -14 -37 0 -40 2 -30 19 23 44 1
104 -51 133 -17 10 -29 25 -29 37 0 12 -5 19 -12 16 -7 -2 -22 2 -32 10 -27
20 -8 42 22 26 11 -6 31 -11 43 -11 20 0 20 1 -7 22 -41 32 -57 48 -47 48 4 0
1 5 -7 10 -29 19 5 10 38 -10 37 -23 42 -24 42 -10 0 6 -5 10 -10 10 -10 0
-22 8 -56 39 -19 17 -10 28 10 12 8 -7 20 -10 25 -7 5 4 12 2 16 -4 3 -5 13
-10 20 -10 18 0 8 30 -14 47 -9 6 -13 15 -8 19 4 4 13 2 19 -4 7 -7 17 -12 22
-12 6 0 3 7 -7 14 -15 12 -16 18 -8 35 10 17 9 20 -4 15 -8 -4 -15 -1 -15 5 0
6 6 11 14 11 8 0 16 7 20 15 3 8 1 15 -4 15 -6 0 -10 5 -10 11 0 5 10 9 22 7
17 -2 25 4 32 25 8 21 7 30 -2 36 -9 5 -7 13 7 28 11 11 17 23 14 27 -3 3 0
12 7 21 7 9 10 18 7 21 -6 7 13 33 25 34 4 0 9 -4 12 -8z m647 -137 c1 16 2
17 6 3 11 -41 -88 -184 -111 -161 -3 3 -6 -1 -6 -9 0 -35 -178 -55 -221 -25
-18 13 -19 17 -7 17 9 0 20 -4 23 -10 3 -5 14 -10 23 -10 15 0 15 2 2 10 -8 5
-13 10 -10 10 37 6 70 6 81 -1 8 -4 18 -1 27 9 7 9 11 11 7 5 -11 -23 6 -14
38 20 18 17 44 41 58 52 21 17 62 95 56 106 -1 2 6 -5 15 -16 18 -20 18 -20
19 0z m-1185 -141 c-6 -15 28 -53 48 -54 4 0 17 -11 28 -25 11 -15 30 -25 44
-25 14 0 22 -4 19 -10 -3 -6 1 -13 10 -16 13 -5 12 -9 -6 -25 -12 -11 -18 -19
-13 -19 6 0 15 5 22 12 9 9 12 9 12 -2 0 -13 2 -13 10 0 5 8 10 10 10 4 0 -7
11 -15 25 -18 14 -4 26 -13 26 -21 3 -28 4 -33 12 -41 4 -5 12 -2 16 5 6 10
19 12 45 7 32 -6 35 -9 21 -22 -11 -12 -19 -12 -35 -4 -28 15 -46 2 -23 -16
18 -13 17 -15 -9 -18 -7 -1 -12 -7 -11 -14 2 -7 -3 -12 -10 -12 -8 0 -7 -3 3
-10 10 -6 5 -9 -18 -8 -31 1 -31 2 -12 15 20 14 19 33 -1 33 -6 0 -8 -4 -4 -9
10 -16 -12 -21 -25 -6 -7 8 -15 13 -19 10 -4 -2 -20 7 -35 20 -18 16 -23 25
-14 28 9 4 8 6 -2 6 -32 2 -40 23 -17 43 21 18 21 19 2 14 -29 -8 -80 8 -80
25 0 8 -7 19 -15 26 -12 9 -13 14 -2 24 20 21 14 37 -13 31 -18 -3 -25 0 -25
12 0 9 5 16 10 16 7 0 8 6 1 17 -7 13 -5 21 7 30 22 16 25 16 18 -3z m1034
-173 c0 -11 5 -23 12 -27 8 -5 9 -2 5 10 -4 10 -3 15 3 11 17 -10 11 -32 -10
-38 -11 -3 -20 -14 -20 -24 0 -12 -11 -22 -31 -28 -29 -9 -38 -32 -11 -29 6 1
12 -4 12 -12 0 -8 -7 -14 -16 -14 -8 0 -12 -4 -9 -10 3 -5 -1 -10 -9 -10 -9 0
-15 5 -13 11 1 6 -4 14 -11 16 -11 4 -12 1 -3 -16 7 -11 15 -21 19 -21 4 0 16
-13 25 -30 17 -28 17 -31 1 -55 -9 -14 -23 -25 -31 -25 -13 0 -13 -3 -3 -15
17 -21 1 -19 -24 3 -20 16 -20 16 -6 -2 12 -15 12 -20 3 -23 -18 -6 -16 -20 2
-20 8 0 11 5 8 11 -4 6 2 4 13 -4 29 -22 30 -24 14 -18 -8 3 -28 -7 -43 -22
-20 -19 -24 -27 -13 -27 9 0 16 4 16 9 0 4 9 8 20 8 12 0 20 -6 19 -12 -3 -24
1 -38 11 -38 5 0 7 13 4 29 -8 37 8 46 45 26 33 -17 56 -43 28 -32 -50 20 -52
20 -26 -9 15 -16 32 -39 38 -51 11 -21 9 -23 -16 -23 -26 0 -26 -1 15 -31 43
-32 51 -50 13 -29 -13 6 -21 7 -21 1 0 -5 9 -13 20 -16 11 -3 20 -12 20 -20 0
-7 12 -15 28 -18 15 -3 38 -8 52 -11 14 -4 41 -10 60 -13 19 -3 42 -11 50 -18
8 -7 28 -15 44 -19 l30 -7 -25 20 c-16 13 -19 20 -10 21 28 0 -23 29 -54 31
-16 0 -41 5 -55 10 -25 9 -25 9 3 5 32 -4 35 9 7 26 -11 7 -20 16 -20 20 0 17
24 6 63 -27 22 -19 44 -35 49 -35 10 0 118 -69 136 -87 7 -7 20 -17 29 -21 22
-13 7 -32 -23 -32 -14 0 -38 -7 -55 -15 -16 -9 -51 -17 -77 -19 -26 -2 -72
-11 -102 -19 -30 -9 -75 -18 -100 -22 l-45 -6 30 16 c16 9 65 25 110 37 100
25 123 37 75 38 -19 0 -41 4 -49 9 -8 5 -27 5 -44 0 -20 -6 -35 -5 -42 2 -7 7
-5 8 8 4 10 -4 17 -2 17 5 0 6 -8 10 -17 8 -10 -2 -18 -10 -18 -18 0 -19 -26
-30 -41 -18 -7 5 -26 10 -43 13 -17 2 -35 6 -41 10 -5 3 -10 0 -10 -8 0 -7 6
-14 13 -15 6 0 27 -2 45 -3 24 -2 32 -7 32 -21 0 -10 -7 -18 -17 -18 -10 0
-25 -5 -33 -11 -13 -10 -13 -10 0 -6 10 3 16 -2 16 -13 0 -14 -9 -16 -56 -14
-74 3 -74 3 -67 11 10 10 -13 32 -28 27 -7 -3 -16 -1 -20 5 -3 6 -1 11 5 11 8
0 10 9 6 25 -5 21 -3 25 15 25 29 0 18 25 -12 26 -13 1 -32 5 -41 9 -11 4 -18
3 -18 -4 0 -6 -7 -8 -16 -4 -13 5 -13 7 -2 14 10 7 7 11 -9 15 -30 8 -29 30 2
50 14 9 25 22 25 29 0 13 -35 28 -57 26 -7 -1 -13 5 -13 14 0 11 6 15 19 10
10 -3 29 -1 42 4 22 9 21 10 -10 8 -44 -3 -50 16 -9 28 32 10 42 33 12 27 -8
-2 -14 1 -13 5 4 25 -2 34 -21 28 -15 -5 -18 -3 -14 9 3 9 12 16 19 16 20 0
55 63 55 100 0 23 -9 41 -33 66 -24 23 -31 36 -23 44 5 5 7 10 2 10 -13 0 -36
-28 -26 -32 6 -2 2 -10 -8 -19 -17 -15 -19 -14 -20 10 0 14 -2 35 -4 46 -2 15
2 19 15 17 24 -4 49 17 43 35 -4 9 1 12 17 10 12 -2 16 -2 10 0 -19 6 -16 21
5 26 12 3 11 5 -6 6 -13 0 -21 5 -17 11 3 5 12 7 20 4 7 -3 18 4 25 15 6 12
20 21 30 21 11 0 20 5 20 10 0 6 8 10 18 10 9 1 35 12 57 25 50 29 55 30 55 6z
m-1013 -220 c-2 -10 1 -18 7 -17 11 1 285 -13 381 -19 120 -8 231 -33 252 -58
10 -11 13 -17 7 -14 -21 12 -35 -20 -33 -74 1 -30 1 -63 -1 -74 -4 -34 -17 33
-19 96 l-1 55 -127 13 c-71 6 -180 14 -243 17 -63 2 -128 9 -145 14 -42 13
-90 8 -91 -10 -1 -8 -2 -33 -3 -54 0 -22 -4 -36 -8 -32 -8 7 -5 90 3 119 4 12
1 18 -8 16 -36 -5 -39 3 -8 20 44 25 43 25 37 2z m2005 -434 c9 -3 18 -1 20 5
2 6 10 -3 17 -21 11 -25 11 -37 2 -58 -10 -23 -10 -25 2 -14 8 6 17 26 21 43
6 30 7 31 26 13 24 -22 24 -28 5 -69 -20 -43 -67 -47 -103 -10 -14 13 -29 24
-33 24 -13 0 -11 24 6 56 15 29 11 49 -5 24 -8 -13 -10 -12 -10 2 0 17 21 30
30 18 3 -3 13 -9 22 -13z m-427 -87 c15 -16 29 -38 30 -47 1 -10 6 -26 10 -36
12 -28 -23 -60 -58 -53 -17 4 -26 2 -22 -4 4 -6 -1 -13 -10 -16 -38 -15 -99
95 -65 116 7 4 10 12 6 18 -3 6 7 16 24 24 16 7 30 16 30 20 0 18 28 6 55 -22z
m228 -69 c24 -40 24 -76 2 -102 -12 -13 -14 -19 -5 -14 12 7 13 6 3 -6 -7 -9
-31 -16 -55 -17 -33 -2 -48 4 -70 25 -16 15 -28 37 -28 52 0 24 1 24 14 6 8
-11 12 -23 9 -28 -2 -4 1 -6 9 -5 7 2 12 -2 11 -9 -2 -7 6 -17 18 -23 19 -10
19 -10 7 11 -7 13 -21 32 -30 43 -10 11 -18 29 -18 41 0 28 37 58 65 52 17 -3
22 0 18 11 -10 24 32 -7 50 -37z m-943 -32 c0 -5 -4 -7 -10 -4 -14 9 -13 -3 9
-60 10 -27 16 -55 14 -62 -2 -6 6 -13 19 -15 19 -2 23 -9 23 -38 1 -19 5 -42
10 -50 6 -8 15 -33 20 -55 6 -24 16 -40 25 -40 8 0 16 -8 18 -17 2 -13 -3 -18
-17 -18 -20 0 -29 -15 -13 -22 8 -3 52 -64 52 -73 0 -3 -7 -5 -16 -5 -13 0
-14 -3 -4 -15 7 -8 15 -13 19 -11 4 3 18 -4 31 -15 14 -10 20 -19 14 -19 -6 0
-14 3 -18 8 -4 4 -17 8 -29 9 -88 8 -117 12 -150 21 -21 5 -45 16 -53 24 -9 7
-43 24 -77 38 -49 20 -62 31 -68 53 -6 23 -4 28 9 26 23 -4 62 10 62 22 0 5
-4 9 -10 9 -5 0 -10 9 -10 20 0 21 20 29 20 8 0 -7 5 -5 11 5 6 10 8 25 5 34
-5 12 -1 14 19 9 24 -6 35 7 15 19 -15 10 -12 35 5 35 18 0 20 16 3 23 -8 3
-6 6 5 6 19 1 24 21 5 21 -10 0 -10 2 0 8 7 5 15 26 18 48 10 71 14 84 29 84
8 0 15 -5 15 -11z m559 -28 c10 -6 26 -28 36 -51 19 -42 19 -42 -15 -110 -4
-8 -18 -17 -31 -18 -13 -2 -21 0 -16 4 4 4 -1 16 -10 27 -10 11 -13 17 -6 13
12 -6 44 7 69 29 8 8 7 14 -3 23 -7 7 -11 17 -8 23 4 5 -1 9 -9 9 -9 0 -16 -4
-16 -10 0 -5 -6 -9 -12 -7 -8 1 -14 -10 -16 -25 -2 -16 -8 -28 -14 -28 -5 0
-8 7 -4 15 3 8 1 15 -5 15 -5 0 -12 -7 -16 -16 -6 -15 -8 -15 -20 2 -7 10 -13
14 -13 10 0 -4 9 -19 20 -33 11 -14 20 -22 20 -18 0 4 7 2 15 -5 16 -13 11
-30 -8 -29 -9 0 -8 2 1 6 6 2 9 9 6 14 -4 6 -10 6 -18 0 -21 -18 -48 22 -48
68 1 52 17 81 45 81 12 0 29 5 37 10 19 12 18 12 39 1z m201 -60 c0 -5 9 -11
19 -14 20 -5 59 -67 42 -67 -5 0 -11 7 -15 15 -3 8 -13 15 -21 15 -9 0 -14 3
-11 8 2 4 -7 13 -21 19 l-26 13 22 -23 c16 -18 20 -31 15 -55 -4 -18 -11 -32
-16 -32 -5 0 -7 4 -4 9 4 5 -5 4 -18 -2 l-24 -11 27 -23 c14 -13 30 -23 35
-23 15 0 46 32 46 47 0 7 5 13 10 13 15 0 12 -17 -6 -45 -13 -20 -25 -25 -59
-25 -55 0 -86 24 -90 70 -3 46 4 67 17 48 7 -9 8 -7 5 9 -4 16 2 28 21 43 29
21 52 26 52 11z m-294 -151 c41 -15 77 -73 69 -111 -4 -16 -13 -35 -20 -43
-18 -18 -103 -12 -123 8 -20 20 -29 130 -12 141 7 4 15 2 19 -4 5 -7 15 -9 26
-5 18 7 18 8 -1 15 -30 12 7 11 42 -1z m257 -87 c23 -23 27 -35 25 -68 -2 -29
-9 -42 -24 -50 -31 -15 -99 -6 -123 16 -22 21 -29 73 -10 84 6 4 8 14 4 23 -3
9 -3 13 1 10 3 -4 13 0 22 8 21 22 69 11 105 -23z m-1405 -64 c75 -35 78 -37
69 -45 -3 -3 -22 2 -42 11 -19 10 -38 15 -41 12 -8 -8 34 -47 51 -47 8 0 15
-7 15 -15 0 -13 -8 -15 -37 -9 l-38 6 35 -30 c30 -26 33 -31 18 -37 -11 -4
-18 -18 -18 -32 0 -13 -5 -33 -11 -44 -18 -35 -39 -5 -37 55 1 54 -4 82 -22
116 -6 11 -8 24 -5 29 3 5 1 21 -5 35 -5 14 -7 26 -4 26 3 0 35 -14 72 -31z
m-472 -129 c8 0 13 4 9 9 -3 5 -1 12 5 16 5 3 10 -1 10 -9 0 -8 8 -14 19 -13
12 1 17 6 13 16 -3 9 -1 12 6 7 7 -4 12 -13 12 -21 0 -10 9 -12 35 -8 21 3 35
1 35 -4 0 -6 13 -8 33 -4 34 7 51 1 106 -38 19 -14 31 -18 26 -10 -5 10 -3 9
10 -2 9 -9 18 -28 18 -42 1 -14 5 -23 10 -20 4 2 7 -1 7 -6 0 -6 6 -11 14 -11
14 0 32 -36 28 -53 -1 -5 1 -6 6 -3 13 8 72 -53 72 -74 0 -22 36 -4 55 28 12
18 24 29 28 25 4 -4 10 3 13 15 4 12 15 24 25 27 10 4 20 11 20 16 3 19 5 24
13 37 4 7 15 11 23 8 8 -3 12 -2 9 3 -3 5 1 11 9 15 8 3 12 12 9 21 -5 13 6
20 21 13 2 -2 12 7 21 20 10 15 22 21 33 17 12 -3 22 2 30 17 6 13 9 15 7 6
-6 -20 10 -25 16 -6 3 9 10 8 23 -5 17 -17 19 -17 27 -2 10 17 55 16 166 -4
26 -5 56 -9 67 -10 23 -2 75 -7 90 -10 6 -1 3 -6 -5 -12 -12 -9 -11 -9 5 -4
11 4 27 7 35 8 8 0 21 4 28 10 7 6 12 6 12 0 0 -5 13 -9 29 -8 19 1 27 -3 25
-10 -4 -8 16 -11 67 -11 39 1 73 -2 76 -7 2 -4 8 -5 13 -2 5 3 11 1 15 -5 3
-5 0 -10 -7 -11 -35 -3 45 -17 99 -18 51 -1 61 -4 57 -16 -8 -20 6 -19 21 2
13 17 36 10 34 -10 0 -9 -2 -9 -6 1 -7 17 -23 15 -23 -3 0 -9 9 -15 24 -15 16
0 27 -7 31 -19 4 -12 12 -18 20 -15 8 3 21 -1 30 -9 19 -19 19 -27 1 -27 -8 0
-17 -4 -20 -9 -7 -11 34 -2 52 12 9 7 11 6 6 -7 -3 -9 -10 -16 -15 -16 -4 0
-6 -8 -3 -17 5 -14 4 -15 -4 -4 -5 7 -15 10 -21 6 -7 -4 -17 -2 -24 3 -15 12
-87 21 -81 10 8 -13 -10 -9 -34 8 -17 12 -22 12 -22 2 0 -10 -3 -9 -11 2 -8
11 -12 12 -16 3 -2 -7 -9 -13 -14 -13 -6 0 -8 4 -5 9 3 5 -1 12 -10 15 -8 3
-12 2 -9 -4 3 -6 1 -10 -4 -10 -6 0 -11 4 -11 8 0 8 -25 13 -72 16 -16 0 -28
5 -28 10 0 5 -7 3 -15 -4 -13 -11 -14 -10 -9 4 3 9 1 16 -5 16 -6 0 -11 -7
-11 -16 0 -11 -5 -14 -17 -9 -39 16 -56 18 -49 7 9 -15 1 -15 -25 -2 -13 8
-19 7 -19 -1 0 -7 -22 -10 -62 -9 -82 3 -90 2 -83 -10 4 -6 -6 -10 -24 -10
-16 0 -31 6 -34 13 -2 6 -8 8 -13 4 -5 -4 -2 -12 5 -16 11 -7 9 -11 -7 -20
-17 -9 -21 -9 -16 2 3 8 -2 14 -11 14 -9 0 -14 -6 -11 -14 4 -9 -6 -13 -37
-13 -44 0 -92 -19 -52 -20 18 -1 18 -2 -3 -10 -12 -5 -29 -7 -37 -4 -19 8 -49
-22 -39 -38 6 -10 4 -10 -7 -2 -8 6 -27 11 -44 11 -16 0 -22 -1 -12 -4 24 -6
21 -23 -4 -23 -11 0 -26 -6 -33 -12 -42 -40 -68 -58 -78 -52 -6 4 -8 3 -4 -4
3 -6 -5 -19 -19 -30 -13 -11 -21 -23 -17 -27 4 -5 -1 -5 -10 -2 -10 3 -20 2
-23 -3 -4 -6 0 -10 7 -11 10 0 10 -2 1 -6 -7 -2 -13 -13 -13 -24 0 -10 -7 -19
-15 -19 -8 0 -15 6 -15 13 0 8 -3 8 -9 -2 -5 -8 -7 -21 -4 -30 4 -11 0 -9 -11
4 -15 19 -16 19 -9 1 4 -13 3 -17 -5 -12 -6 3 -13 -3 -17 -14 -4 -11 -11 -17
-17 -14 -7 5 -9 1 -5 -9 4 -12 -2 -21 -23 -32 -36 -18 -39 -35 -7 -36 16 -1
18 -2 5 -6 -10 -2 -18 -12 -18 -21 0 -13 -2 -13 -14 3 -13 18 -14 18 -9 -9 5
-23 3 -27 -8 -21 -11 6 -12 5 -1 -6 17 -19 15 -32 -4 -25 -14 5 -15 4 -5 -8 8
-10 9 -16 1 -21 -5 -3 -10 0 -10 7 0 9 -3 9 -10 -2 -7 -11 -4 -17 13 -23 22
-8 21 -9 -8 -25 -16 -9 -33 -15 -37 -14 -5 1 -8 -3 -8 -9 0 -6 9 -8 20 -4 16
5 20 2 20 -19 0 -14 -4 -26 -10 -26 -5 0 -9 -3 -8 -7 1 -8 -4 -24 -23 -70 -5
-13 -5 -23 0 -23 4 0 6 -11 3 -25 -2 -14 -8 -25 -13 -25 -5 0 -9 -9 -9 -21 0
-13 -4 -18 -12 -13 -7 4 -8 3 -4 -5 4 -6 2 -19 -5 -27 -9 -11 -10 -18 -2 -22
6 -4 10 -19 10 -34 -1 -14 -5 -24 -8 -22 -4 2 -9 -5 -12 -16 -3 -11 -2 -20 2
-20 4 0 16 -7 27 -16 18 -15 18 -15 0 -10 -13 4 -17 2 -13 -7 3 -8 2 -20 -3
-27 -4 -7 -3 -26 2 -43 8 -22 8 -31 -3 -38 -12 -8 -12 -10 0 -18 12 -8 12 -12
2 -25 -9 -11 -10 -16 -2 -16 6 0 11 -5 11 -11 0 -6 -9 -9 -20 -6 -16 4 -20 0
-20 -19 0 -24 19 -35 21 -11 0 9 2 9 6 -1 3 -7 -3 -20 -13 -27 -11 -9 -14 -14
-6 -15 6 0 12 -7 12 -15 0 -9 -6 -12 -17 -8 -15 5 -16 3 -5 -8 14 -16 16 -33
2 -24 -5 3 -10 0 -10 -8 0 -10 7 -14 23 -10 14 3 11 -1 -11 -13 -29 -15 -35
-15 -43 -3 -7 10 -8 8 -6 -9 2 -12 9 -28 16 -35 10 -9 11 -8 6 8 -6 16 -5 17
4 5 17 -23 13 -33 -10 -27 -21 6 -21 5 2 -19 13 -14 17 -23 9 -19 -11 4 -15
-3 -16 -27 -1 -18 4 -37 10 -41 7 -6 4 -6 -8 -3 -15 5 -17 2 -13 -14 6 -22 -8
-28 -17 -7 -3 6 -3 2 0 -10 3 -13 1 -23 -5 -23 -6 0 -11 -7 -11 -15 0 -8 -4
-15 -9 -15 -5 0 -8 -11 -8 -25 0 -14 -8 -34 -18 -45 -9 -10 -18 -30 -19 -44 0
-14 -5 -26 -9 -26 -5 0 -6 -9 -2 -20 5 -16 3 -19 -11 -13 -14 5 -15 3 -4 -17
8 -15 8 -20 1 -16 -15 9 -14 -19 1 -47 10 -21 10 -21 -7 -7 -16 13 -18 13 -13
0 3 -8 1 -23 -4 -34 -7 -13 -6 -21 2 -26 7 -4 13 -32 14 -64 2 -50 0 -55 -16
-50 -26 8 -22 -5 5 -16 22 -9 22 -9 1 -9 -15 -1 -23 -9 -26 -26 -5 -22 -2 -25
16 -20 11 2 16 2 9 -1 -7 -3 -10 -11 -7 -18 5 -14 -28 -56 -45 -56 -7 0 -10
-4 -7 -9 3 -5 -3 -11 -14 -14 -11 -3 -24 -17 -30 -31 -5 -14 -12 -26 -14 -26
-3 0 -2 8 1 17 5 13 3 15 -13 8 -10 -4 -26 -8 -34 -9 -9 -1 -20 -5 -25 -8 -6
-4 -22 2 -35 13 l-25 20 25 -7 c21 -6 23 -5 13 8 -7 8 -10 18 -6 21 3 4 -1 7
-10 7 -10 0 -17 8 -17 20 0 11 -8 28 -18 38 -13 13 -16 26 -11 50 4 18 3 35
-2 38 -5 3 -4 14 1 25 8 13 7 19 0 19 -12 0 -2 53 12 58 4 2 6 8 2 13 -3 5 2
16 10 25 9 8 16 23 16 32 0 9 9 32 20 50 12 20 18 42 15 53 -4 10 -3 24 1 31
9 14 9 13 19 113 4 39 12 76 17 82 6 7 8 19 5 26 -5 14 12 89 32 140 6 16 7
27 1 27 -5 0 -7 7 -4 15 4 8 10 12 15 9 5 -3 6 2 3 10 -4 9 -1 16 6 16 9 0 9
4 -1 17 -8 9 -9 14 -3 10 13 -7 24 22 24 65 0 15 5 30 10 33 6 4 9 12 8 18 -3
15 19 56 45 85 12 12 15 22 8 22 -8 0 -9 5 -2 19 6 10 7 21 4 25 -3 3 1 6 10
6 9 0 17 5 17 11 0 5 -4 7 -10 4 -6 -3 -7 1 -4 9 3 9 10 16 14 16 4 0 5 12 2
26 -3 17 -1 25 5 21 7 -4 13 11 17 38 4 25 14 52 23 60 8 9 13 19 10 22 -6 6
17 57 35 80 12 15 21 92 21 190 0 40 2 71 6 69 3 -2 7 10 7 27 1 27 0 28 -11
13 -11 -14 -12 -9 -11 31 2 51 -10 103 -28 115 -6 4 -7 8 -2 8 5 0 3 7 -4 15
-10 12 -10 15 1 15 9 1 8 4 -4 11 -9 6 -15 14 -12 20 4 5 1 9 -4 9 -6 0 -11 7
-11 15 0 8 -5 15 -11 15 -5 0 -8 4 -5 9 3 4 -3 16 -14 26 -11 10 -17 21 -15
25 7 12 -23 33 -35 25 -6 -4 -10 -3 -9 2 1 4 -3 19 -9 33 -13 30 -52 88 -52
78 0 -4 -9 0 -19 9 -11 9 -18 20 -16 23 3 4 -7 6 -20 4 -17 -1 -25 3 -25 12 0
9 -4 13 -9 10 -5 -3 -16 10 -25 29 -11 22 -24 35 -36 35 -24 0 -36 18 -16 26
8 3 12 12 9 21 -5 13 -7 13 -15 -1 -7 -13 -13 -14 -23 -6 -8 7 -18 10 -22 7
-14 -8 -55 12 -48 24 5 7 13 4 26 -7 18 -16 19 -16 19 0 0 9 5 14 10 11 6 -4
23 5 38 20 25 26 27 26 35 7 10 -23 62 -28 53 -6 -3 8 -4 14 -2 14 3 0 13 3
23 7 16 6 16 5 4 -10 -12 -15 -11 -17 4 -17 9 0 19 10 22 21 5 18 7 19 15 5 5
-9 16 -16 24 -16z m-575 -282 l0 -23 9 23 c11 26 23 30 13 5 -6 -16 -5 -16 10
-4 15 12 17 11 17 -5 1 -17 2 -17 13 -4 9 11 32 15 90 15 43 0 84 3 90 7 6 4
20 0 29 -9 11 -10 18 -12 18 -5 0 7 8 12 18 12 13 0 14 -2 4 -9 -10 -6 -7 -10
12 -13 14 -3 26 -1 26 3 0 5 5 9 11 9 5 0 8 -4 5 -9 -3 -5 1 -14 9 -21 11 -9
18 -10 29 -1 11 9 15 7 21 -11 4 -13 7 -30 6 -38 -1 -11 3 -9 14 5 16 19 16
19 13 -6 -2 -15 -10 -35 -18 -45 -12 -16 -12 -17 0 -6 8 6 20 12 28 12 12 0
12 -3 2 -15 -10 -12 -10 -15 0 -15 22 0 2 -13 -23 -15 -12 -1 -30 -5 -40 -10
-13 -5 -16 -4 -11 9 5 12 0 16 -17 16 -19 0 -21 -2 -9 -10 8 -5 10 -10 5 -10
-6 0 -16 5 -23 12 -9 9 -12 9 -12 0 0 -7 -8 -12 -17 -12 -16 0 -16 2 -3 11 11
8 3 9 -30 4 -24 -3 -48 -11 -52 -18 -6 -9 -13 -7 -24 8 -12 16 -16 17 -23 6
-5 -7 -14 -10 -20 -7 -7 4 -10 2 -9 -5 2 -7 -5 -15 -16 -17 -10 -2 -16 0 -12
6 4 7 -7 6 -29 -1 -19 -6 -35 -17 -35 -24 0 -8 -5 -11 -10 -8 -6 4 -8 11 -5
16 4 5 -1 9 -9 9 -8 0 -27 12 -42 28 -23 24 -25 24 -14 4 11 -22 10 -22 -10
-10 -11 7 -18 18 -16 25 3 6 -2 19 -10 30 -14 17 -15 17 -8 -6 4 -16 3 -21 -5
-17 -6 4 -11 19 -11 33 0 20 4 24 18 19 16 -6 16 -5 0 8 -22 16 -23 36 -3 36
8 0 15 5 15 11 0 5 -4 7 -10 4 -5 -3 -10 -1 -10 4 0 6 6 11 13 12 8 0 8 2 -2
6 -11 5 -11 7 0 14 26 16 49 10 50 -13z m2099 -85 c0 -12 3 -14 11 -6 7 7 28
7 71 -2 34 -7 69 -12 78 -10 9 2 23 -5 31 -16 15 -21 35 -25 41 -7 6 18 28 -1
28 -25 0 -18 2 -19 10 -7 5 8 10 12 11 8 5 -26 4 -34 -2 -43 -4 -5 -1 -16 7
-23 9 -8 14 -9 14 -2 0 6 5 8 10 5 15 -9 12 -25 -4 -25 -9 0 -12 -7 -9 -21 5
-18 7 -19 15 -5 23 40 84 -1 72 -49 -5 -20 -9 -24 -18 -14 -8 8 -8 13 2 16 14
5 16 23 3 23 -5 0 -13 -10 -16 -22 -4 -13 -17 -31 -29 -41 -11 -10 -16 -16
-10 -13 7 3 17 -1 24 -9 11 -13 10 -14 -4 -9 -9 3 -16 1 -16 -5 0 -7 6 -14 14
-17 18 -7 14 -39 -5 -39 -8 0 -15 6 -15 13 -5 43 -6 46 -11 34 -4 -10 -9 -8
-20 7 -14 20 -40 31 -28 12 11 -19 -12 -19 -25 0 -8 10 -20 19 -27 19 -7 0
-13 6 -13 13 0 8 -3 8 -9 -2 -8 -12 -13 -12 -36 3 -16 11 -24 13 -19 5 4 -7
-9 -4 -29 8 -30 18 -35 19 -30 5 5 -14 2 -14 -16 3 -13 11 -33 21 -45 22 -22
1 -40 6 -66 16 -35 13 -46 14 -64 5 -10 -6 -16 -6 -13 -1 3 4 -1 14 -9 21 -12
11 -14 10 -14 -3 0 -8 -4 -15 -10 -15 -5 0 -7 7 -4 15 4 8 1 15 -5 15 -6 0
-11 -4 -11 -9 0 -5 -11 -8 -25 -8 -25 0 -25 0 -8 21 l18 21 -23 -20 c-16 -13
-39 -19 -73 -20 -27 0 -49 1 -49 3 0 1 10 7 23 12 20 8 20 9 2 9 -11 1 -33 -6
-49 -14 -22 -12 -26 -12 -17 -1 17 21 -13 43 -35 25 -13 -10 -17 -10 -24 1 -6
10 -2 22 13 38 19 20 19 22 3 16 -14 -5 -17 -3 -14 7 3 8 11 13 17 12 6 -2 11
1 11 6 0 12 33 9 42 -4 5 -6 8 -3 8 7 0 9 -6 19 -12 22 -7 3 -4 5 7 4 11 -1
29 3 40 9 11 6 35 10 53 9 17 -1 32 2 32 6 0 5 9 4 19 -2 14 -7 21 -6 23 2 6
16 120 18 131 3 5 -7 9 -6 15 1 6 10 27 19 55 23 4 0 7 -7 7 -16z m-1826 -164
c-4 -8 0 -9 15 -4 13 4 21 2 21 -5 0 -7 8 -9 20 -5 24 7 63 -3 55 -15 -3 -4 1
-8 8 -7 61 2 79 -4 74 -22 -4 -15 2 -21 23 -26 22 -5 27 -10 23 -28 -4 -17 -3
-19 6 -7 12 17 16 14 24 -20 5 -22 3 -26 -19 -28 -14 -1 -23 2 -20 7 4 5 -4 7
-16 3 -15 -4 -19 -2 -13 7 5 10 2 11 -14 6 -13 -4 -28 -1 -36 5 -8 7 -15 10
-15 7 0 -3 -17 0 -37 5 -57 15 -203 25 -203 14 0 -5 -3 -6 -7 -2 -8 8 -9 11
-12 44 -2 14 -4 13 -11 -5 -5 -13 -15 -23 -22 -22 -8 0 -9 2 -2 5 6 3 9 17 6
31 -4 21 -2 25 11 20 9 -3 18 1 21 9 3 9 10 13 15 10 5 -4 11 -1 13 5 3 8 9 6
20 -5 10 -10 19 -12 23 -6 3 5 15 10 26 10 10 0 18 3 18 8 -2 12 1 22 7 22 3
0 2 -5 -2 -11z m1544 -93 c22 -8 43 -12 46 -9 3 3 12 -2 21 -11 9 -9 32 -16
51 -16 19 0 34 -5 34 -11 0 -5 4 -8 8 -5 11 7 64 -29 55 -37 -3 -4 -1 -7 5 -7
5 0 13 6 15 13 3 6 11 -3 17 -21 7 -19 16 -29 19 -23 4 6 14 -2 25 -19 9 -17
12 -30 7 -30 -6 0 -11 5 -11 11 0 5 -5 7 -11 4 -6 -5 -4 -12 8 -20 10 -7 15
-17 10 -21 -16 -16 -64 -6 -111 24 -28 18 -58 32 -67 32 -10 0 -20 4 -23 9 -9
13 -74 23 -204 30 -88 5 -111 3 -107 -6 2 -7 0 -13 -5 -13 -6 0 -10 4 -10 10
0 5 -13 7 -29 4 -19 -4 -38 -1 -52 10 -21 15 -22 16 -3 23 10 4 24 12 29 19
18 24 147 64 231 73 6 0 30 -5 52 -13z m-1383 -163 c6 -11 16 -18 22 -16 32
11 27 -131 -5 -155 -9 -7 -27 -22 -39 -32 -13 -11 -23 -17 -23 -15 0 3 -9 1
-20 -5 -48 -26 -6 -35 52 -12 30 12 62 6 52 -10 -3 -5 -12 -7 -20 -4 -8 3 -14
0 -14 -5 0 -7 9 -9 23 -5 12 3 29 6 37 6 12 0 12 2 2 9 -10 6 -10 10 2 20 15
13 40 6 32 -8 -3 -4 1 -8 9 -8 17 0 19 9 5 23 -6 6 -3 10 9 10 11 0 19 -3 19
-6 -1 -17 4 -21 16 -11 11 9 15 7 19 -9 4 -16 0 -20 -18 -20 -13 0 -36 -5 -52
-12 -15 -6 -36 -10 -47 -9 -10 2 -15 -2 -12 -7 3 -6 -1 -12 -8 -15 -8 -3 -17
-1 -20 6 -3 9 -7 8 -15 -3 -17 -25 -252 -21 -308 5 -24 11 -43 23 -43 28 0 12
-27 37 -39 37 -10 0 -31 31 -31 45 0 4 7 5 15 1 17 -6 21 19 5 29 -7 4 -6 13
1 27 6 11 14 16 18 11 3 -5 14 -12 23 -16 11 -4 15 -13 11 -28 -4 -14 -2 -20
4 -16 6 4 13 -3 17 -16 5 -21 53 -48 96 -53 82 -11 125 -12 132 -1 13 20 9 25
-14 19 -22 -5 -21 -4 6 29 41 48 56 90 56 152 0 30 3 57 7 61 10 10 27 1 38
-21z m1480 -55 c14 -6 25 -17 25 -24 0 -7 8 -10 20 -7 16 4 19 2 14 -11 -4 -9
-3 -16 2 -15 27 5 46 -2 41 -15 -3 -8 5 -26 19 -41 23 -25 33 -52 15 -41 -5 3
-14 -1 -21 -9 -6 -7 -19 -11 -27 -8 -9 4 -14 2 -10 -3 3 -5 -8 -19 -24 -29
-16 -11 -29 -23 -29 -27 0 -4 -7 -5 -15 -2 -10 4 -15 0 -15 -16 0 -11 4 -19 9
-16 5 4 11 2 13 -4 2 -6 29 -2 70 11 37 12 65 26 62 30 -3 5 3 6 12 2 13 -5
15 -3 9 7 -5 9 -4 11 3 6 14 -8 2 -35 -24 -57 -16 -12 -17 -12 -11 3 5 15 4
16 -12 6 -11 -6 -17 -16 -15 -22 2 -6 -9 -19 -26 -28 -26 -15 -30 -15 -30 -2
0 12 -2 12 -14 2 -8 -7 -12 -16 -9 -20 2 -5 -6 -9 -19 -10 -13 -1 -30 -2 -38
-3 -8 0 -20 -4 -27 -8 -7 -4 -61 -8 -121 -9 -86 0 -115 3 -143 18 -18 10 -41
18 -49 18 -19 1 -80 38 -80 48 0 4 -6 8 -14 8 -7 0 -19 14 -26 31 -17 39 -59
58 -77 34 -7 -11 -9 -25 -3 -40 5 -14 5 -26 -3 -34 -8 -8 -6 -11 7 -11 12 0
16 -5 13 -14 -3 -8 5 -26 19 -41 13 -14 27 -37 30 -50 6 -23 15 -29 36 -26 4
0 10 -10 14 -24 9 -36 28 -49 45 -29 11 13 10 17 -4 26 -10 5 -15 13 -12 18 3
5 1 11 -5 15 -15 9 -12 25 6 25 8 0 12 -5 8 -11 -4 -8 0 -8 15 0 18 10 21 9
21 -9 0 -11 -5 -20 -12 -20 -6 0 -9 -3 -6 -6 4 -3 16 -1 27 6 23 12 28 1 9
-18 -9 -9 -9 -12 0 -12 6 0 9 -6 6 -13 -3 -9 3 -13 18 -13 15 1 27 -7 33 -21
6 -14 19 -23 32 -23 12 0 24 -6 27 -12 5 -10 7 -10 12 -1 4 10 9 10 20 -1 8
-8 14 -19 14 -24 0 -6 16 -9 36 -7 26 3 34 0 31 -9 -4 -10 6 -13 36 -11 24 1
51 -4 64 -13 21 -13 23 -13 17 2 -3 9 -1 16 5 16 6 0 11 -8 12 -17 0 -15 2
-15 7 -3 4 8 18 16 32 18 19 1 21 0 10 -7 -25 -17 -7 -19 42 -6 34 8 49 9 52
1 3 -7 10 -5 18 6 11 13 18 14 33 5 18 -9 19 -9 6 6 -12 15 -11 17 6 17 11 0
26 11 33 25 8 14 24 28 36 31 13 3 25 16 28 30 4 13 11 24 17 24 8 0 7 5 -1
15 -10 12 -10 15 3 15 9 0 19 9 22 20 4 11 11 18 16 15 5 -4 9 10 9 30 0 22 6
38 15 41 12 5 12 10 3 27 -6 12 -7 19 -3 15 4 -4 14 -1 22 7 10 10 30 13 69
10 35 -3 53 -1 49 5 -4 6 8 13 26 17 28 5 30 7 14 14 -19 7 -19 8 1 8 12 1 24
-6 28 -14 4 -11 21 -15 61 -15 35 0 54 -4 50 -10 -8 -13 1 -13 28 1 l22 12
-20 -23 c-11 -12 -19 -31 -17 -41 2 -10 -1 -19 -7 -19 -5 0 -8 -10 -6 -21 6
-33 15 -36 15 -6 0 15 5 27 10 27 6 0 10 -7 10 -15 0 -21 18 -19 23 3 3 9 5 2
6 -16 0 -18 6 -42 12 -53 10 -19 9 -19 -10 -9 -26 13 -28 -1 -2 -17 11 -7 17
-21 16 -35 -1 -13 -3 -29 -4 -35 0 -7 -9 -13 -18 -14 -10 0 -3 -5 15 -10 39
-12 43 -27 5 -23 -16 2 -21 1 -11 -2 25 -8 30 -35 11 -57 -10 -11 -13 -17 -6
-14 6 4 14 3 18 -3 3 -5 -2 -11 -12 -11 -17 -1 -17 -2 0 -6 9 -2 17 -11 17
-19 0 -13 -3 -13 -22 0 -26 18 -38 20 -38 6 0 -5 5 -9 12 -7 6 1 17 -9 24 -23
11 -21 11 -26 -2 -30 -9 -3 -15 -10 -13 -15 1 -6 -9 -15 -22 -22 -28 -14 -32
-37 -6 -39 12 -1 13 -1 2 3 -8 2 -15 8 -15 13 0 10 50 23 58 15 3 -3 -2 -5
-11 -5 -19 0 -23 -20 -4 -21 6 0 -1 -7 -18 -14 -16 -8 -41 -11 -55 -8 -24 6
-24 6 -7 -11 9 -10 17 -22 17 -27 0 -5 7 -9 15 -9 8 0 15 -5 15 -11 0 -6 -7
-9 -15 -6 -20 8 -29 -11 -15 -28 10 -12 9 -15 -9 -15 -11 0 -21 -4 -21 -10 0
-5 5 -10 10 -10 6 0 10 -8 10 -17 0 -15 -2 -14 -14 3 -22 29 -40 4 -38 -53 0
-27 -1 -42 -5 -35 -3 10 -17 1 -44 -28 -22 -23 -37 -46 -33 -51 3 -5 -3 -9
-12 -9 -14 0 -15 -3 -6 -12 7 -7 12 -21 11 -33 0 -20 0 -20 -9 0 -8 19 -9 18
-11 -5 -2 -22 -2 -23 -6 -4 -2 12 -13 30 -24 40 -11 10 -20 14 -19 9 2 -6 1
-14 0 -20 -1 -5 -3 -19 -4 -29 -2 -28 -26 -32 -27 -4 -1 17 -3 18 -6 6 -2 -10
-12 -18 -21 -18 -10 -1 -5 -7 13 -15 18 -8 23 -14 13 -14 -9 -1 -18 -7 -21
-13 -3 -10 -7 -10 -19 -1 -20 17 -38 -2 -38 -39 0 -22 -4 -28 -17 -26 -11 2
-19 -6 -23 -22 -5 -23 -6 -24 -14 -5 -4 12 -3 21 3 23 6 2 11 11 11 20 0 29
-22 -4 -26 -39 -2 -18 -11 -37 -19 -42 -8 -4 -15 -13 -15 -19 0 -7 5 -6 15 2
12 10 15 10 15 -4 0 -21 -31 -20 -56 2 -18 17 -67 26 -58 10 3 -4 11 -8 18 -8
17 0 29 -41 16 -54 -7 -7 -10 -5 -10 3 0 8 -7 10 -19 6 -11 -3 -22 -1 -26 5
-5 7 -12 5 -22 -7 -13 -17 -13 -16 -3 5 7 15 7 22 0 22 -5 0 -10 -5 -10 -12 0
-6 -7 -3 -15 8 -12 16 -14 16 -15 3 0 -9 -7 -32 -15 -50 -14 -29 -15 -30 -12
-8 3 22 1 25 -20 21 -22 -4 -23 -2 -17 23 6 22 4 26 -7 19 -22 -14 -57 -15
-65 -3 -3 6 -2 14 4 18 6 3 -7 6 -28 6 -25 0 -42 -5 -45 -13 -4 -11 1 -13 18
-8 31 7 39 -1 25 -27 -9 -18 -11 -18 -19 -4 -6 10 -16 14 -26 10 -13 -5 -15
-2 -10 18 6 22 3 24 -29 23 -34 -1 -63 -14 -31 -14 9 0 17 -5 17 -11 0 -5 5
-7 10 -4 6 3 10 -1 10 -9 0 -10 -9 -16 -22 -17 -22 0 -22 -1 -3 -8 11 -5 28
-5 37 0 23 12 41 11 33 -1 -4 -6 -10 -8 -15 -5 -5 3 -12 1 -15 -5 -4 -6 -15
-8 -25 -5 -28 9 -35 -14 -8 -25 20 -9 21 -10 2 -7 -12 3 -29 0 -38 -5 -10 -6
-16 -5 -16 2 0 5 4 10 9 10 5 0 12 7 15 16 4 10 -4 19 -26 28 -39 17 -61 10
-53 -15 4 -11 2 -19 -5 -19 -6 0 -9 4 -5 9 3 5 1 12 -5 16 -5 3 -10 1 -10 -4
0 -6 -4 -11 -10 -11 -5 0 -7 7 -4 15 5 11 2 13 -10 9 -11 -4 -16 -1 -16 10 0
9 -8 16 -18 16 -31 0 -64 39 -57 67 5 21 4 23 -9 11 -9 -8 -11 -19 -5 -29 5
-11 3 -16 -7 -16 -8 0 -13 6 -10 13 3 8 1 16 -4 19 -6 4 -10 15 -10 26 0 26
-18 24 -23 -3 -4 -21 -4 -20 -6 3 0 15 -8 30 -17 33 -15 6 -15 4 -3 -11 11
-14 9 -13 -12 2 -17 13 -23 23 -16 27 12 8 2 23 -16 23 -19 0 -19 25 0 26 15
0 14 2 -5 11 -13 6 -21 17 -18 23 2 6 -5 17 -15 23 -28 18 -25 45 4 37 17 -5
14 -1 -10 17 -31 22 -47 56 -20 43 6 -4 4 0 -5 8 -19 15 -24 37 -8 37 5 0 7 7
4 15 -4 8 -1 15 5 15 6 0 11 9 11 20 0 21 -15 27 -25 10 -13 -21 -25 -9 -25
25 0 21 -5 35 -12 36 -7 1 -2 5 12 9 l25 8 -27 1 c-15 1 -30 -3 -33 -9 -10
-17 -25 -11 -25 10 0 11 -5 20 -11 20 -5 0 -7 5 -3 12 5 8 11 5 17 -10 12 -27
23 -28 23 -2 0 11 -4 20 -8 20 -4 0 -5 8 -1 18 5 14 3 15 -8 5 -7 -7 -24 -13
-38 -14 -15 0 -20 -3 -13 -6 6 -2 12 -9 12 -14 0 -6 -5 -7 -12 -3 -8 5 -9 2
-5 -9 3 -10 2 -17 -3 -17 -6 0 -10 5 -10 11 0 6 -7 3 -16 -6 -9 -9 -24 -13
-34 -10 -10 3 -22 0 -26 -6 -4 -7 -3 -9 3 -6 15 9 23 -29 10 -42 -8 -8 -8 -11
1 -11 7 0 12 -7 12 -16 0 -10 6 -14 15 -10 8 3 15 1 15 -4 0 -6 -7 -10 -15
-10 -21 0 -47 44 -39 66 7 18 6 18 -13 -1 -11 -11 -16 -23 -11 -26 5 -3 3 -11
-4 -17 -14 -11 -42 -11 -54 1 -4 3 5 4 20 1 30 -5 31 -5 11 32 -9 18 -15 22
-15 13 0 -20 -27 -33 -36 -17 -4 5 0 14 7 19 12 7 11 9 -1 9 -9 0 -5 6 9 13
23 11 49 67 31 67 -5 0 -11 -8 -13 -17 -4 -17 -5 -17 -6 -1 0 10 9 26 21 38
23 22 36 70 18 70 -8 0 -8 6 0 20 9 16 8 20 -5 20 -9 0 -13 -4 -10 -10 3 -5 2
-10 -3 -10 -16 0 -22 13 -11 26 8 10 5 11 -13 7 -16 -3 -19 -2 -10 4 7 5 10
17 7 25 -4 9 -2 19 4 23 6 3 11 1 11 -4 0 -6 9 -20 20 -31 16 -16 20 -17 20
-5 0 8 -4 15 -10 15 -5 0 -10 9 -10 20 0 25 17 26 23 3 4 -14 5 -12 6 5 0 12
6 22 11 22 6 0 22 12 35 26 21 22 27 25 40 14 17 -14 20 -30 5 -30 -5 0 -10 8
-10 17 0 14 -3 14 -12 5 -10 -10 -10 -15 2 -22 30 -19 43 -12 37 20 -9 43 26
40 51 -5 9 -17 11 -12 7 25 -2 25 -9 46 -15 48 -5 2 -10 8 -10 13 0 16 23 10
46 -12 18 -17 26 -19 41 -9 17 10 17 11 -2 6 -14 -4 -26 3 -38 20 -20 27 -15
46 10 37 15 -6 14 -7 -3 -14 -18 -7 -18 -8 2 -8 33 -1 38 44 8 58 -15 6 -25 7
-29 1 -4 -6 4 -10 17 -11 22 0 22 -1 3 -9 -24 -9 -39 2 -41 33 -1 12 -5 30 -9
40 -4 11 -3 23 4 30 13 13 15 31 3 23 -5 -3 -9 8 -9 24 0 34 13 40 22 11 3
-11 13 -25 22 -33 14 -11 15 -10 9 10 -5 14 -3 29 6 39 12 15 11 15 -9 4 -13
-6 -24 -8 -24 -4 -7 45 -6 63 0 68 5 2 11 -4 14 -15 3 -11 1 -20 -4 -20 -5 0
-9 -4 -9 -9 0 -5 9 -7 19 -4 16 4 18 10 10 36 -5 17 -5 35 0 41 5 6 7 23 5 39
-1 15 2 27 8 27 5 0 8 6 5 14 -8 19 32 69 49 62 7 -3 30 2 50 10 20 8 38 13
41 10 2 -2 -6 -7 -19 -11 -45 -15 -77 -46 -76 -76 1 -18 6 -29 15 -29 8 0 12
-4 8 -9 -7 -12 31 -25 46 -16 5 4 17 -1 24 -11 8 -11 15 -16 15 -11 0 4 9 -2
19 -12 25 -25 104 -48 109 -32 2 6 18 -3 35 -21 33 -34 38 -35 143 -42 34 -2
67 -6 73 -10 6 -4 11 -1 11 8 0 8 -4 17 -10 21 -5 3 5 25 21 49 36 50 50 102
36 133 -11 24 -1 93 13 93 5 0 21 -5 35 -12z m-1925 -204 c5 -1 16 -2 23 -3 9
-1 9 -3 -1 -10 -11 -7 -11 -9 2 -14 9 -4 16 -13 16 -22 0 -8 6 -15 13 -15 9 0
9 -2 -1 -9 -10 -6 -6 -14 17 -34 34 -28 40 -40 16 -31 -22 9 -18 -10 8 -37 13
-13 27 -32 30 -43 4 -11 13 -16 22 -12 17 6 32 -13 18 -23 -6 -3 -13 -13 -16
-21 -4 -12 -6 -11 -6 3 -1 10 -7 17 -13 14 -7 -2 -12 -12 -12 -21 1 -9 -6 -16
-15 -16 -13 0 -13 -2 -2 -9 9 -6 10 -11 2 -15 -7 -5 -6 -15 5 -32 11 -16 12
-24 5 -24 -7 0 -9 -4 -6 -10 3 -5 17 -10 31 -10 15 0 24 -6 24 -15 0 -8 4 -15
9 -15 15 0 33 29 25 41 -4 8 -3 9 4 5 7 -4 9 -19 5 -38 -5 -24 -3 -29 7 -23 7
4 16 2 21 -6 6 -10 9 -8 9 9 0 12 5 22 10 22 6 0 10 -4 10 -10 0 -5 4 -10 10
-10 5 0 7 6 4 13 -3 8 5 13 23 15 18 1 23 -1 15 -7 -8 -5 -1 -7 20 -7 39 2 61
13 52 28 -5 7 2 9 19 6 15 -3 24 -1 21 3 -3 5 7 9 21 9 15 0 24 4 20 10 -3 6
-1 10 5 10 7 0 10 6 7 14 -4 10 0 12 14 9 13 -4 19 0 19 11 0 9 6 16 13 16 18
0 73 61 93 104 10 20 23 36 31 36 14 0 10 -15 -24 -79 -13 -24 -23 -50 -23
-57 0 -8 -4 -14 -10 -14 -5 0 -12 -11 -16 -25 -3 -14 -11 -25 -16 -25 -6 0 -5
-6 2 -15 10 -11 9 -18 -4 -30 -17 -18 -22 -50 -6 -40 6 3 10 -1 10 -9 0 -9 -6
-15 -12 -14 -7 2 -21 -14 -32 -36 -16 -32 -16 -40 -5 -47 10 -6 7 -9 -11 -10
-17 -1 -20 -3 -7 -6 9 -2 15 -8 12 -13 -3 -5 -13 -6 -23 -3 -15 6 -15 5 -4
-10 9 -10 11 -24 6 -39 -10 -27 -11 -34 -13 -68 -1 -21 -3 -22 -12 -10 -9 12
-10 12 -5 -4 7 -19 -19 -113 -35 -131 -5 -5 -9 -17 -9 -26 0 -20 -26 -49 -43
-49 -7 0 -1 9 13 20 21 16 22 20 7 20 -15 0 -16 3 -6 21 9 17 8 20 -3 17 -7
-3 -15 -15 -16 -29 -2 -13 -8 -29 -13 -36 -11 -13 24 -29 41 -18 5 3 10 1 10
-5 0 -6 6 -8 13 -4 6 4 9 3 4 -1 -11 -13 -50 -14 -64 -3 -9 7 -13 7 -13 -1 0
-6 -4 -11 -10 -11 -5 0 -7 6 -4 14 3 7 -2 16 -10 19 -9 4 -16 13 -16 22 0 17
-21 20 -37 4 -7 -7 -12 -4 -16 14 -7 26 -57 56 -57 34 0 -8 -3 -8 -9 2 -5 7
-14 11 -20 7 -7 -4 -9 -1 -5 8 3 8 16 17 30 20 13 4 24 11 24 16 0 6 -13 4
-29 -5 -16 -8 -31 -11 -34 -7 -2 4 -2 1 -1 -5 2 -7 -3 -13 -11 -13 -11 0 -12
6 -6 23 5 12 16 21 24 19 9 -1 18 1 21 6 3 5 -6 8 -19 6 -16 -1 -25 3 -25 12
0 17 -17 19 -22 2 -3 -7 -12 2 -20 19 -12 23 -13 34 -4 38 8 4 8 7 -1 11 -8 3
-10 17 -6 36 6 28 4 30 -13 23 -37 -15 -59 -11 -62 13 -2 12 -7 20 -12 17 -4
-3 -10 2 -14 10 -7 19 3 19 25 -1 10 -9 15 -23 12 -32 -4 -14 -3 -14 5 -3 6 8
15 10 23 6 8 -5 2 5 -14 22 -15 16 -24 33 -20 37 5 5 -2 5 -14 2 -24 -8 -32 8
-10 18 6 4 2 4 -11 2 -22 -4 -23 -4 -7 20 10 15 11 24 4 24 -6 0 -9 6 -6 14 3
8 1 16 -4 18 -17 6 -17 42 -1 61 15 16 14 17 -1 11 -15 -5 -16 -3 -7 20 5 14
7 33 4 41 -4 8 -1 22 6 30 10 12 10 18 -1 31 -7 9 -14 40 -14 70 -2 45 0 52
12 43 11 -9 12 -8 7 5 -3 9 -10 16 -15 16 -5 0 -9 7 -9 16 0 8 4 13 8 10 4 -2
8 10 8 29 0 19 -4 31 -8 29 -4 -3 -8 0 -8 5 0 6 8 11 18 12 11 0 12 2 4 6 -10
4 -9 8 5 19 12 9 13 13 5 14 -7 0 -10 5 -6 11 4 8 9 7 15 -2 4 -8 13 -15 19
-15z m1143 -937 c6 -16 -6 -39 -19 -36 -29 5 -37 -2 -18 -16 11 -8 14 -15 7
-15 -7 0 -13 -7 -13 -16 0 -10 -6 -14 -15 -10 -9 3 -15 0 -15 -8 0 -18 -39
-66 -53 -65 -8 0 -8 2 1 6 6 2 12 14 11 26 0 12 -3 16 -6 9 -2 -6 -8 -10 -13
-7 -4 3 -8 -1 -7 -8 1 -41 -4 -56 -18 -51 -8 4 -15 1 -15 -6 0 -6 -4 -8 -10
-5 -5 3 -10 15 -10 26 0 10 -4 19 -10 19 -5 0 -7 -7 -4 -15 4 -8 1 -15 -6 -15
-9 0 -11 10 -6 30 3 17 1 30 -4 30 -18 0 -10 18 10 23 11 3 20 10 20 17 0 6
-4 8 -10 5 -5 -3 -10 -4 -10 -1 0 3 30 26 68 50 70 47 134 61 145 33z m211
-1096 c10 -11 15 -25 10 -32 -4 -8 -3 -10 4 -5 7 4 20 2 29 -3 14 -8 8 -10
-28 -8 -26 1 -45 5 -42 10 8 13 -8 7 -24 -9 -9 -8 -22 -13 -29 -10 -8 3 -14
-2 -15 -12 -1 -15 -2 -15 -6 1 -2 10 -10 17 -16 16 -30 -4 -39 2 -32 19 5 13
3 14 -6 5 -9 -9 -8 -16 3 -32 8 -12 17 -18 20 -15 3 3 9 1 13 -5 3 -7 -2 -11
-14 -11 -12 0 -21 4 -21 10 0 10 -53 6 -95 -7 -42 -13 -55 -11 -44 8 15 29 10
34 -11 10 -10 -13 -25 -21 -32 -19 -7 3 -18 -2 -25 -11 -9 -13 -14 -14 -24 -3
-16 15 -43 16 -33 1 4 -8 0 -8 -15 0 -17 10 -22 9 -28 -5 -5 -15 -7 -15 -15 0
-5 9 -14 13 -20 10 -15 -10 -71 -9 -86 0 -7 4 -16 5 -21 2 -5 -3 -12 1 -15 10
-11 28 -6 36 18 32 19 -4 22 -1 18 14 -3 13 -8 16 -17 8 -7 -6 -19 -8 -28 -5
-11 5 -14 -1 -12 -24 2 -21 -2 -31 -11 -31 -13 0 -18 12 -15 33 0 4 -3 7 -9 7
-12 0 -13 10 -2 28 7 9 15 10 35 3 15 -6 27 -7 27 -2 0 15 35 19 47 6 7 -7 10
-14 8 -16 -1 -2 4 -11 13 -19 14 -13 15 -12 9 2 -9 25 13 36 63 30 52 -5 198
-4 283 3 54 5 57 4 58 -18 1 -17 2 -18 6 -4 2 9 8 15 13 12 5 -3 12 0 16 6 4
8 3 9 -4 5 -7 -4 -12 -2 -12 3 0 6 12 11 28 11 15 0 34 5 42 10 21 13 24 13
44 -9z m1761 -271 c-6 -10 12 -14 52 -10 17 1 21 -3 17 -14 -3 -9 -1 -16 4
-16 6 0 13 8 15 18 4 15 11 -30 8 -50 0 -5 7 -8 17 -8 14 0 15 -2 2 -10 -13
-8 -13 -10 2 -10 25 0 47 -38 43 -75 -2 -26 0 -32 14 -28 11 3 17 -2 17 -16 0
-11 -5 -17 -10 -14 -5 4 -7 -1 -3 -10 4 -10 0 -17 -11 -20 -13 -3 -12 -6 8
-14 24 -10 23 -11 -17 -18 -24 -4 -43 -10 -43 -15 0 -4 -26 -11 -57 -15 -31
-4 -87 -15 -124 -25 -38 -9 -70 -15 -73 -13 -2 3 -15 -1 -27 -8 -13 -7 -37
-14 -53 -16 -16 -1 -37 -12 -47 -24 -11 -13 -25 -19 -34 -15 -9 3 -29 -1 -46
-9 -16 -9 -29 -11 -29 -6 0 5 -9 7 -20 4 -11 -3 -20 -9 -20 -14 0 -5 -15 -9
-34 -9 -25 0 -39 -7 -50 -22 -9 -12 -16 -17 -16 -10 0 6 -5 12 -11 12 -5 0 -8
-4 -5 -8 3 -5 -10 -8 -29 -7 -18 0 -31 -3 -28 -8 3 -5 0 -8 -8 -5 -7 2 -29 -3
-48 -13 -26 -13 -38 -14 -43 -6 -5 8 -8 6 -8 -5 0 -11 -5 -15 -15 -12 -8 4
-15 1 -15 -4 0 -6 -16 -19 -35 -28 -19 -9 -35 -20 -35 -25 0 -5 -4 -9 -10 -9
-5 0 -7 13 -3 30 5 26 3 29 -12 23 -13 -4 -16 -3 -11 5 4 7 15 13 24 13 9 1 4
5 -13 9 -29 7 -29 8 -7 15 12 4 22 12 22 19 0 6 5 4 11 -4 9 -13 10 -12 5 3
-8 24 32 65 46 46 7 -11 8 -9 6 6 -2 11 2 19 9 18 7 -2 10 3 7 11 -3 8 0 17 5
21 6 3 9 10 6 15 -3 5 4 7 15 5 11 -2 18 0 15 5 -7 11 41 60 58 60 7 0 6 -4
-3 -10 -8 -5 -10 -10 -5 -10 13 0 39 29 48 54 5 12 13 15 27 11 23 -7 27 10 4
19 -16 6 -11 26 7 26 6 0 7 -5 3 -12 -5 -7 -2 -9 9 -5 9 3 18 1 21 -6 3 -7 3
-2 0 11 -4 15 -1 22 10 22 8 0 18 4 21 10 4 6 -1 7 -12 3 -15 -5 -16 -3 -5 8
8 9 15 10 22 3 12 -12 67 34 88 71 10 17 11 17 12 3 0 -14 4 -13 25 8 14 14
30 22 37 18 6 -4 8 -3 5 2 -7 12 9 41 18 32 4 -4 8 -18 9 -32 1 -29 15 -36 17
-8 1 9 1 20 0 25 -1 4 10 5 24 3 26 -5 35 8 13 17 -7 3 -4 6 7 6 11 0 27 -4
35 -9 11 -7 11 -10 2 -10 -7 0 -11 -3 -9 -7 3 -5 -9 -9 -25 -10 -33 -3 -50
-13 -32 -20 6 -2 9 -16 8 -31 -2 -15 -1 -21 2 -13 9 19 44 53 44 42 0 -5 8 -7
19 -4 10 3 22 -1 26 -8 5 -7 4 -10 -3 -5 -6 3 -13 2 -16 -3 -3 -5 1 -12 9 -15
18 -6 30 16 22 39 -4 8 -2 17 3 20 5 3 10 -5 12 -17 4 -27 18 -32 43 -14 16
12 17 16 6 30 -11 13 -11 16 0 16 8 0 27 16 43 35 28 33 44 47 31 25z m-2025
-216 c0 -17 5 -17 30 -4 16 8 18 7 14 -4 -4 -10 2 -14 18 -13 13 0 32 -4 42
-8 13 -5 17 -5 13 2 -9 15 42 3 78 -17 17 -10 29 -23 28 -29 -2 -6 2 -11 7
-11 6 0 10 -6 10 -13 0 -7 9 -30 21 -51 18 -34 20 -80 2 -62 -9 8 -54 -35 -47
-45 3 -5 0 -9 -5 -9 -6 0 -11 4 -11 8 0 5 -6 9 -14 9 -8 0 -12 -6 -9 -14 3 -7
0 -13 -6 -13 -6 0 -11 5 -11 11 0 5 -5 7 -11 4 -6 -4 -8 -13 -5 -20 2 -7 -2
-16 -10 -19 -8 -3 -14 1 -14 9 0 8 -4 15 -10 15 -5 0 -10 -4 -10 -8 0 -5 -15
-9 -32 -9 -26 -1 -29 1 -13 7 11 4 24 5 29 2 5 -2 7 1 4 8 -2 8 -10 16 -18 18
-7 3 -10 0 -6 -7 4 -7 -1 -11 -13 -11 -11 0 -23 5 -26 10 -4 6 -10 8 -15 5 -5
-3 -11 -1 -15 5 -3 5 -1 10 4 10 17 0 12 23 -10 50 l-20 25 7 -25 c4 -14 11
-27 16 -29 6 -2 6 -6 -1 -11 -15 -9 -3 -40 15 -40 8 0 14 -4 14 -10 0 -5 -7
-10 -15 -10 -8 0 -15 -5 -15 -11 0 -5 5 -7 10 -4 6 3 10 2 10 -4 0 -17 -18
-22 -24 -6 -3 8 -15 15 -26 15 -13 0 -20 7 -21 20 -2 32 -3 35 -24 73 -21 39
-29 44 -41 25 -5 -7 -3 -8 5 -4 8 5 14 0 18 -13 3 -12 10 -21 15 -21 5 0 6 -4
3 -10 -3 -5 -1 -10 5 -10 6 0 8 -5 5 -11 -4 -6 -13 -8 -21 -5 -11 4 -12 1 -5
-12 7 -14 4 -17 -15 -18 -14 -1 -24 3 -23 10 3 24 -2 33 -16 33 -9 0 -14 -6
-11 -13 3 -7 -4 -11 -20 -10 -13 0 -27 9 -30 18 -3 10 -11 15 -20 11 -9 -3
-14 1 -14 13 0 16 -2 17 -10 4 -8 -12 -11 -13 -19 -1 -6 9 -11 10 -15 2 -4 -6
-2 -11 4 -11 6 0 8 -4 5 -10 -10 -16 -25 -12 -25 6 0 10 -6 14 -15 10 -9 -3
-15 0 -15 10 0 8 4 13 9 10 5 -3 11 6 14 21 4 24 4 26 -8 10 -17 -24 -22 -22
-30 13 -9 40 -22 46 -22 10 0 -16 4 -27 9 -24 4 3 8 0 8 -5 0 -6 -4 -11 -10
-11 -17 0 -11 -18 8 -23 13 -4 12 -5 -5 -6 -29 -1 -63 81 -45 109 9 14 8 21
-3 30 -12 10 -15 9 -15 -8 0 -27 -12 -34 -28 -16 -9 10 -9 14 -1 14 6 0 9 6 6
14 -4 10 2 13 24 12 25 -2 28 1 23 17 -4 14 -3 17 6 12 6 -4 9 -16 7 -27 -4
-13 -1 -18 8 -15 8 4 11 -1 8 -12 -3 -10 2 -21 9 -24 11 -4 13 2 10 24 -2 16
-8 32 -13 35 -18 10 -9 24 16 24 14 0 24 -3 24 -7 -3 -19 2 -33 12 -33 5 0 7
5 4 10 -3 6 -1 10 5 10 6 0 9 4 5 10 -3 5 -3 20 1 34 l6 25 24 -27 24 -27 -6
26 c-5 25 -3 27 25 24 34 -2 61 -21 61 -41 0 -8 5 -14 10 -14 7 0 7 6 0 19
-17 34 -12 39 27 31 23 -6 42 -5 49 1 8 6 14 6 18 0 7 -11 46 -2 46 11 0 5 5
6 10 3 6 -3 10 -13 10 -21z m1558 -407 c19 3 32 1 32 -5 0 -16 -18 -24 -23
-10 -2 7 -8 10 -12 5 -5 -4 -3 -13 3 -19 9 -9 16 -7 32 7 29 26 25 3 -4 -24
-19 -18 -31 -21 -54 -16 -24 5 -33 2 -41 -13 -6 -11 -7 -23 -3 -27 4 -3 3 -6
-3 -5 -32 7 -37 0 -31 -40 3 -22 3 -40 -1 -39 -5 1 -10 0 -13 -1 -3 -1 -17 -4
-32 -6 -20 -3 -26 -1 -23 8 3 7 -6 26 -20 42 -14 16 -25 33 -25 38 0 4 -7 8
-15 8 -12 0 -13 -5 -3 -25 6 -13 14 -24 17 -23 18 2 21 -4 11 -22 -6 -12 -7
-20 -1 -20 5 0 11 6 14 13 2 6 2 2 1 -10 -4 -22 26 -41 46 -28 14 9 13 -8 -2
-28 -15 -19 -68 -34 -68 -19 0 5 7 9 16 8 33 -2 24 23 -15 49 -23 14 -41 30
-41 36 0 5 -5 7 -10 4 -6 -4 -4 -12 5 -21 17 -18 20 -28 5 -19 -13 8 -42 -14
-34 -26 9 -16 -37 -10 -53 6 -22 23 -30 9 -8 -15 12 -14 25 -18 39 -14 20 6
20 6 2 -8 -20 -16 -15 -38 9 -38 7 0 16 6 19 13 3 6 3 1 0 -11 -6 -22 -4 -23
18 -11 20 11 21 10 11 -3 -7 -8 -10 -18 -6 -21 3 -4 2 -7 -3 -7 -6 0 -15 5
-21 11 -6 6 -16 8 -23 4 -7 -5 -4 -13 11 -26 12 -11 20 -22 16 -25 -3 -3 -21
8 -39 25 -33 31 -54 25 -24 -8 21 -24 20 -37 -1 -20 -17 13 -17 12 -2 -6 21
-27 33 -58 17 -49 -7 5 -9 2 -5 -9 3 -9 0 -18 -9 -21 -8 -3 -14 1 -14 9 0 8
-5 15 -11 15 -6 0 -8 -9 -4 -21 l7 -22 -30 22 c-30 21 -31 21 -37 1 -3 -11 -3
-24 0 -30 3 -5 -3 -10 -14 -10 -24 0 -25 -4 -10 -32 10 -18 9 -20 -5 -15 -10
4 -15 3 -12 -1 6 -11 -22 -47 -31 -38 -4 4 -2 10 4 14 8 5 9 13 3 22 -8 13
-10 12 -10 -2 0 -21 -26 -24 -33 -5 -4 9 -8 8 -16 -3 -10 -13 -11 -13 -12 0
-1 8 -1 18 0 23 1 9 -16 8 -49 -3 l-25 -8 27 -1 c34 -1 44 -17 23 -37 -11 -11
-19 -13 -28 -6 -8 7 -18 6 -31 -4 -11 -7 -18 -15 -15 -16 30 -19 51 -28 64
-28 8 0 15 -4 15 -10 0 -5 -19 -2 -42 6 -29 10 -76 14 -146 13 -65 -1 -108 3
-115 10 -10 10 1 16 26 12 4 0 7 8 7 19 0 14 5 18 17 13 13 -5 15 -2 10 16 -4
18 -3 20 8 11 18 -15 36 -4 28 15 -3 8 0 15 7 15 6 0 8 -4 5 -10 -8 -13 1 -12
47 0 20 6 39 18 42 26 6 15 4 15 -18 1 -21 -14 -25 -15 -30 -1 -3 9 -2 12 4 9
6 -4 17 1 26 10 19 18 40 14 36 -6 -1 -8 9 -1 23 14 14 16 23 32 20 37 -3 4 5
6 17 3 18 -4 16 0 -10 18 -35 23 -33 32 8 44 14 3 20 3 13 -2 -8 -6 -4 -12 13
-20 23 -11 24 -10 18 10 -3 12 -13 29 -21 38 -18 22 2 31 35 16 24 -11 24 -34
1 -29 -8 2 -10 0 -6 -5 5 -4 19 -8 32 -8 26 -1 23 8 -17 48 -18 18 -16 37 3
37 6 0 8 -4 4 -9 -3 -5 -1 -12 5 -16 5 -3 10 -1 10 5 0 8 6 8 20 0 14 -8 20
-8 20 0 0 6 5 8 10 5 6 -3 10 -2 10 2 0 5 17 10 37 11 40 3 66 18 57 33 -3 5
-17 8 -31 7 -16 -2 -28 3 -30 12 -4 13 -3 13 6 0 9 -13 11 -13 11 3 0 9 7 17
15 17 20 0 19 17 -2 30 -15 9 -13 10 13 8 17 -2 36 2 43 9 7 7 17 10 23 7 8
-5 9 -1 5 10 -6 15 -2 17 26 14 23 -2 32 1 33 12 5 47 16 59 48 53 17 -3 36
-10 43 -15 7 -6 18 -8 25 -5 8 4 5 8 -9 12 -13 4 -23 11 -23 16 0 5 -10 10
-22 10 -21 1 -21 2 -3 6 11 3 23 10 27 16 9 15 86 19 112 5 17 -9 19 -8 9 3
-20 20 -17 42 5 31 9 -5 32 -7 50 -5z m-2014 -383 c19 -7 21 -31 4 -37 -7 -2
4 -10 25 -17 34 -13 41 -23 40 -57 0 -7 2 -12 6 -11 13 3 121 -51 121 -61 0
-5 7 -17 16 -25 8 -9 10 -16 4 -16 -6 0 -13 6 -16 14 -3 8 -12 17 -20 20 -9 3
-12 1 -9 -4 9 -15 -2 -12 -30 6 -14 9 -40 16 -60 16 -20 0 -35 5 -35 12 0 8
-2 8 -8 -1 -5 -8 -22 -10 -56 -5 l-48 7 21 19 c12 11 21 14 21 8 0 -7 6 -12
14 -12 18 0 17 38 -1 44 -7 3 -13 12 -13 21 0 8 -9 15 -20 15 -18 0 -19 3 -10
20 6 11 20 20 32 20 21 0 21 0 2 15 -19 15 -8 20 20 9z m62 -3001 c-3 -7 0
-12 7 -10 7 1 12 -5 13 -13 3 -44 64 -130 93 -130 16 0 21 -30 15 -88 -7 -78
-13 -102 -23 -102 -8 0 -7 27 3 132 3 28 0 37 -14 41 -27 7 -90 98 -85 124 5
32 -23 37 -56 8 -17 -13 -47 -29 -67 -35 -36 -9 -37 -11 -38 -57 -2 -82 -15
-144 -35 -164 -29 -29 -43 -23 -20 10 22 31 41 135 35 189 -2 18 0 31 5 28 25
-16 103 40 131 93 12 24 13 24 27 6 7 -11 11 -25 9 -32z m-272 -1852 c-4 -36
0 -56 19 -93 27 -53 20 -64 -11 -20 -20 27 -38 94 -34 120 5 22 -19 13 -51
-20 -18 -18 -43 -40 -56 -50 -25 -17 -55 -14 -44 6 3 6 2 8 -2 3 -5 -4 -10
-34 -11 -67 -1 -37 -8 -70 -18 -86 -10 -14 -15 -28 -13 -31 7 -6 -30 -43 -44
-43 -7 0 -8 7 -4 17 30 68 44 127 41 163 l-4 42 56 25 c31 14 73 43 93 64 33
36 39 39 62 28 24 -11 25 -16 21 -58z"/>
</g>
</svg>
